<svg width="111" height="70" viewBox="0 0 111 70" xmlns="http://www.w3.org/2000/svg">
    <defs>
        <clipPath id="gna58qu5ia">
            <path d="M1920 0v4598H0V0h1920z"/>
        </clipPath>
        <clipPath id="v773t6gezb">
            <path d="M45.743 56c1.501 0 2.707.476 3.617 1.429.91.953 1.368 2.186 1.374 3.7v.017c0 1.4-.343 2.517-1.028 3.351-.686.828-1.392 1.358-2.12 1.59 2.176 1.072 4.126 1.852 5.852 2.34 1.732.493 3.1.74 4.105.74 1.004 0 1.737-.052 2.198-.154.461-.102.88-.212 1.259-.331v.408c-.254.272-.742.49-1.463.655-.72.164-1.56.25-2.518.255-2.836 0-6.93-1.242-12.278-3.725-1.052-.205-1.938-.752-2.66-1.642-.72-.89-1.081-2.03-1.081-3.42 0-1.394.417-2.61 1.25-3.648.84-1.038 2.004-1.56 3.493-1.565zm16.281 0c.996 0 1.772.207 2.328.622.556.414.837.969.843 1.664 0 .694-.313 1.283-.939 1.764-.28.219-.584.381-.91.488.875.073 1.536.358 1.983.857.447.499.671 1.123.671 1.874 0 .756-.386 1.4-1.16 1.933-.772.532-1.893.798-3.362.798H58v-.353l.556-.1c.35-.062.562-.186.632-.37.077-.185.115-.5.115-.942v-6.47c0-.51-.048-.843-.144-1-.096-.152-.294-.255-.594-.311L58 56.353V56h4.024zM35.49 56v1.546h-.352c-.1-.672-.384-1.014-.853-1.025h-2.91v4.277h2.03c.224 0 .355-.033.396-.1.047-.068.097-.208.15-.42l.088-.37h.37v2.285h-.37c-.094-.46-.182-.72-.264-.781-.076-.062-.202-.093-.378-.093h-2.023v4.16h3.421c.475 0 .76-.342.853-1.025H36V66h-7v-.353l.51-.1c.317-.062.51-.186.58-.37.07-.185.106-.5.106-.942v-6.47c0-.51-.044-.84-.132-.992-.088-.157-.27-.263-.545-.32l-.519-.1V56h6.49zm-18.16 0c.63 0 .947.196.953.587 0 .302-.17.506-.51.613-.1.028-.201.042-.302.042-.321 0-.636-.115-.945-.344-.302-.235-.498-.367-.586-.395a.675.675 0 0 0-.236-.05c-.517 0-.53.579-.038 1.737l2.684 6.443 3.307-7.576c.126-.28.085-.461-.123-.545-.202-.084-.592-.126-1.172-.126V56h3.629l.009.386c-.643.022-1.068.148-1.276.377a1.438 1.438 0 0 0-.226.395L18.49 66h-.878l-3.411-7.768c-.34-.772-.611-1.262-.813-1.469-.195-.207-.491-.324-.888-.352a6.142 6.142 0 0 0-.501-.017V56h5.33zm62.16 0v1.546h-.352c-.1-.672-.384-1.014-.853-1.025h-2.91v4.277h2.03c.224 0 .355-.033.396-.1.047-.068.097-.208.15-.42l.088-.37h.37v2.285h-.37c-.094-.46-.182-.72-.264-.781-.076-.062-.202-.093-.378-.093h-2.023v4.16h3.421c.475 0 .76-.342.853-1.025H80V66h-7v-.353l.51-.1c.317-.062.51-.186.58-.37.07-.185.106-.5.106-.942v-6.47c0-.51-.044-.84-.132-.992-.088-.157-.27-.263-.545-.32l-.519-.1V56h6.49zm13.463 0c.553 0 1.092.118 1.616.353.945.433 1.421 1.138 1.427 2.113 0 .745-.362 1.379-1.084 1.9-.32.224-.668.402-1.047.534.511.279.963.723 1.354 1.331.747 1.179 1.303 2 1.67 2.466.374.466.744.749 1.111.847v.436c-.975.082-1.733-.088-2.276-.51-.535-.422-1.076-1.129-1.625-2.12-.547-.998-.897-1.61-1.047-1.834-.15-.225-.295-.337-.433-.337-.133-.005-.244.09-.335.288-.084.197-.153.32-.208.37-.09.076-.234.117-.433.123a.54.54 0 0 1-.46-.238.812.812 0 0 1-.163-.453c0-.465.437-.698 1.31-.698.18 0 .33.005.451.016.771-.033 1.306-.378 1.607-1.036.132-.301.199-.627.199-.978 0-.844-.337-1.439-1.01-1.784-.363-.18-.78-.271-1.256-.271h-1.58v8.023c0 .356.033.57.099.641.066.066.196.116.388.148l.614.116v.337H88.33v-.321l.523-.099c.32-.06.509-.172.569-.337.066-.164.1-.48.1-.945v-6.51c-.12-.719-.44-1.089-.958-1.11-.18 0-.418.106-.713.32-.403.296-.752.447-1.048.452-.294 0-.502-.071-.623-.214-.12-.148-.18-.29-.18-.427 0-.39.304-.587.912-.592h6.041zm-47.325.595c-1.002 0-1.8.409-2.403 1.225-.597.817-.895 1.877-.895 3.181 0 1.645.354 2.847 1.064 3.607.709.76 1.566 1.142 2.57 1.148 1.177 0 2.04-.42 2.59-1.259.555-.845.835-1.902.841-3.173 0-1.593-.369-2.778-1.108-3.555-.733-.777-1.62-1.168-2.66-1.174zM61.4 60.807h-.814v4.672c1.526 0 2.57-.202 3.133-.605.562-.403.843-1.006.843-1.807 0-1.266-.687-1.997-2.06-2.193a7.743 7.743 0 0 0-1.102-.067zm.125-4.286h-.94v3.765h.844c1.124 0 1.849-.384 2.175-1.152.102-.246.153-.51.153-.79-.013-1.21-.757-1.817-2.232-1.823zm-20.948-15.46c0 2.994-1.834 4.713-4.977 6.124a5.307 5.307 0 0 0 3.136-.703 5.458 5.458 0 0 0 2.189-2.397c.599 2.926-2.508 6.283-6.657 6.132-6.597-.234-8.705 1.373-8.565 2.783-1.534-1.88-.386-3.497 1.762-4.89.48-.08.949-.225 1.395-.43a5.646 5.646 0 0 0 1.68-1.191c.293-.135.592-.266.892-.394l.464-.196c1.162-.486 2.328-.937 3.37-1.354 4.505-1.795 3.558-6.517 1.694-7.324.311-.709 3.632.212 3.617 3.84zm42.724 6.327-.368-.193A5.726 5.726 0 0 1 80 45.953c.566.75 1.3 1.344 2.14 1.734.745.345 1.554.52 2.369.51l.149-.005a16.776 16.776 0 0 0-1.356-.804zM88 50.95l7.426.01.129.091-7.294-.001a1.62 1.62 0 0 0-.261-.1zm-18.312 0c.452.03.926.054 1.413.07l.899.03H60a8.61 8.61 0 0 1 .346-.037c.383-.03.802-.052 1.237-.063h8.105zm-10.839 0c.038.033.09.067.151.1h-8c.06-.033.151-.067.151-.1h7.698zm-10.44 0c.435.01.854.032 1.238.063.128.01.246.023.353.037H38l.899-.03c.487-.016.96-.04 1.413-.07h8.098zM64.417 41c.183.188.378.363.584.524C60.816 46.55 54.496 49 54.496 49S48.184 46.55 44 41.524c.206-.159.4-.332.584-.517 3.535 4.244 8.686 6.628 9.912 7.152 1.234-.532 6.385-2.915 9.92-7.159zm1.195-4.305-.114-.092c.212.188.461.323.73.397v-.004l.002-.003.002-.008.001-.001v-.001l.002-.004v-.002l.003-.007.001-.003v-.001l.001-.001.002-.005.001-.004.003-.008.001-.003.001-.004.001-.002.004-.011.001-.003.001-.003.003-.006.004-.011v-.001l.001-.004.003-.007.002-.005.001-.003.001-.002v-.001l.002-.005v-.001l.002-.006.002-.004.001-.003.002-.005v-.002l.007-.019.004-.009.005-.015.004-.011v-.001l.005-.013.003-.007v-.002l.002-.004v-.001l.003-.007.003-.01.009-.023.001-.002.002-.006.001-.004.001-.001c-.178.018-.362.02-.541.001l-.176-.027zM50.794 25c1.201 0 2.166.408 2.894 1.225.728.816 1.095 1.873 1.1 3.171v.015c0 1.2-.275 2.158-.823 2.872-.549.71-1.114 1.164-1.695 1.363 1.74.919 3.3 1.587 4.68 2.005 1.386.423 2.48.635 3.284.635.804 0 1.39-.044 1.759-.132.369-.087.704-.182 1.007-.284v.35c-.203.233-.593.42-1.17.561-.577.141-1.248.214-2.014.219-2.27 0-5.544-1.064-9.823-3.193-.842-.175-1.55-.644-2.128-1.407-.577-.763-.865-1.74-.865-2.931 0-1.196.333-2.238 1-3.128.671-.889 1.603-1.336 2.794-1.341zm-.092.51c-.801 0-1.44.35-1.922 1.05-.477.7-.716 1.609-.716 2.727 0 1.41.284 2.44.85 3.09.568.652 1.254.98 2.058.985.94 0 1.63-.36 2.07-1.079.445-.724.67-1.63.674-2.72 0-1.365-.295-2.38-.886-3.047-.586-.665-1.296-1-2.128-1.006zm-24.488 5.42c-.165.362-.552.588-.968.804l-.28.144c-.605.315-1.181.666-1.145 1.432.724-1.547 2.7-.486 2.393-2.38zm58.521-.01c-.315 1.9 1.66.835 2.393 2.387.04-.768-.536-1.12-1.143-1.436l-.28-.145c-.416-.216-.804-.443-.97-.806zM59.521 24c.872 0 1.55.166 2.037.497.486.332.732.776.738 1.332 0 .555-.274 1.026-.822 1.411a2.701 2.701 0 0 1-.796.39c.766.059 1.344.287 1.735.686.391.399.587.899.587 1.5 0 .604-.338 1.12-1.014 1.545-.677.426-1.658.639-2.943.639H56v-.282l.486-.081c.308-.05.492-.148.554-.296.067-.148.1-.399.1-.753v-5.176c0-.408-.042-.675-.126-.8-.083-.121-.257-.204-.52-.249l-.494-.08V24h3.521zm-.545 3.845h-.712v3.738c1.335 0 2.249-.161 2.74-.484.493-.323.739-.804.739-1.445 0-1.013-.601-1.598-1.803-1.755a7.408 7.408 0 0 0-.964-.054zm-31.219.256-.152.009c-.203.024-.397.1-.564.218-.908.848-.659 1.312-1.157 2.16a.155.155 0 0 1 0 .044c.282-.2.499-.48.622-.803.769.14 1.91-.48 1.698-1.54a1.223 1.223 0 0 0-.295-.078l-.152-.01zm54.953.069h.015c-.183 1.064.962 1.685 1.695 1.545.124.323.338.603.616.806v-.045c-.499-.85-.25-1.316-1.159-2.166a1.229 1.229 0 0 0-1.167-.14zm-23.625-3.753h-.821v3.012H59c.984 0 1.618-.307 1.903-.921.09-.198.134-.408.134-.632-.01-.968-.662-1.455-1.953-1.46zm-32.396-2.264c-1.69.575-1.756 2.933-1.163 3.832.38.575 1.368.847 1.683.206-1.09-.486-1.588-2.638-.52-4.038zm57.614-.052c1.071 1.404.572 3.563-.529 4.05.323.644 1.314.37 1.696-.206.594-.887.52-3.268-1.167-3.844zm-47.83-.081c.063.496-.004.997-.19 1.455.48 1.41 1.386 2.264 2.303 2.525a4.316 4.316 0 0 1-.23-.716l-.045-.233a3.542 3.542 0 0 0-1.017-.459 2.53 2.53 0 0 0-.82-2.572zM68.438 9.41c-.254-.103-1.023.109-.83 1.064.233 1.167 2.903 1.772 3.48 3.23-.201.21-.358.463-.461.742a2.256 2.256 0 0 0 .07 1.736c.127.268.304.505.521.695-.576-3.238 2.712-4.157 3.783-3.02-.515.03-3.082.898-2.183 5.062.9 4.164-.735 6.607-2.403 7.081.769-1.838.062-3.61-.81-3.675.33-.854 1.545-1.196 2.06.306C71.986 17.723 66 16.6 66 11.816c0-2.407 1.75-3.464 2.437-2.407zM55.01 0c.183 0 .36.067.49.187s.202.283.202.453a.584.584 0 0 1-.086.296.645.645 0 0 1-.23.222c.37.78 1.042 1.405 1.886 1.75.017.009.031.021.04.037a.096.096 0 0 1 0 .102.107.107 0 0 1-.04.038c-2.189 1.062-1.555 4.215.656 4.215 1.307 0 2.115-.709 2.895-1.468l.293-.286c.244-.238.49-.472.755-.684a.496.496 0 0 1-.14-.334.5.5 0 0 1 .045-.207.537.537 0 0 1 .128-.176.625.625 0 0 1 .416-.155c.155 0 .303.057.412.158a.518.518 0 0 1 .003.765.624.624 0 0 1-.414.16.553.553 0 0 1-.185-.034 18.595 18.595 0 0 0-2.21 4.814A13.91 13.91 0 0 1 61.59 7.28c-.05.335.023.675.209.966.186.29.474.514.815.634 1.083.368 2.123-.694 3.596-1.47a.362.362 0 0 1-.016-.399.399.399 0 0 1 .16-.146.44.44 0 0 1 .218-.048v-.02c.113 0 .222.041.302.115a.38.38 0 0 1 .125.28.38.38 0 0 1-.125.279.446.446 0 0 1-.302.116.39.39 0 0 1-.2-.055c-1.466 1.655-2.571 4.848-2.571 4.848a14.417 14.417 0 0 0-4.717-.905c4.01.905 5.734 1.845 5.255 2.526-1.437-.674-4.43-1.716-9.345-1.716-4.915 0-7.863 1.035-9.337 1.716-.487-.695 1.245-1.62 5.254-2.526a14.417 14.417 0 0 0-4.716.905l-.013-.036c-.126-.357-1.177-3.26-2.56-4.812a.39.39 0 0 1-.198.055.444.444 0 0 1-.257-.078.389.389 0 0 1-.152-.206.36.36 0 0 1 .014-.25.399.399 0 0 1 .176-.189.449.449 0 0 1 .508.057.364.364 0 0 1 .072.468c1.481.79 2.513 1.839 3.596 1.47.34-.116.628-.336.817-.622a1.4 1.4 0 0 0 .222-.957c.656.8 1.216 1.664 1.673 2.574a18.595 18.595 0 0 0-2.21-4.814.553.553 0 0 1-.185.034.615.615 0 0 1-.417-.16.524.524 0 0 1-.172-.385c0-.144.062-.283.172-.385.11-.102.26-.16.417-.16.157 0 .307.058.417.16.11.102.173.24.173.385a.496.496 0 0 1-.14.334c1.216.974 2.063 2.438 3.942 2.438 2.197 0 2.867-3.153.656-4.215a.107.107 0 0 1-.04-.038.096.096 0 0 1 0-.102.107.107 0 0 1 .04-.037c.844-.345 1.517-.97 1.887-1.75a.644.644 0 0 1-.23-.222.584.584 0 0 1-.087-.296c0-.17.073-.332.203-.453A.723.723 0 0 1 55.01 0zM15.476 51.01l.03-.004.507-.046L24 50.95a1.638 1.638 0 0 0-.262.1h-8.32c-.236.164-.474.322-.716.471a6.446 6.446 0 0 1-3.28 1.081c-3.028 0-4.258-3.886-4.646-5.263 0 0 .748.481 1.05.274-1.432-1.177-.921-2.442.237-2.916-2.338.17-2.338 3.716-1.043 5.092-1.438.222-2.59 2.924-4.97 3.183-.4.073-.81.002-1.166-.2a1.805 1.805 0 0 1-.783-.91 1.52 1.52 0 0 1 .223-1.48.883.883 0 0 0 .19.783.813.813 0 0 0 .738.275c1.489 0 2.41-4.693 4.826-6.987 1.115-1.059 3.179-1.762 4.531-.807.23.123.412.322.517.566.106.243.128.516.062.774a1.179 1.179 0 0 1-.42.645c-.207.16-.461.243-.72.235a1.016 1.016 0 0 1-.48-.073 1.043 1.043 0 0 1-.397-.29.666.666 0 0 0-.266-.223.645.645 0 0 0-.338-.058c-1.043 0-1.619 1.903 1.157 1.903 1.633 0 3.043-.874 4.352-1.903 2.804-2.21 4.599-4.14 8.288-4.22l.363-.001.376.01c1.74.096 3.042.659 5.25 0l-.007.014c-.068.133-.683 1.166-3.28 1.215.238.256.557.416.9.451h.805c.838.107 1.082 1.064 1.294 1.93l.084.34c.128.496.27.915.55 1.053.303.063.616.063.92 0a3.762 3.762 0 0 1-2.316 1.23A5.728 5.728 0 0 0 31 45.954a5.772 5.772 0 0 1-.3.363l-.16.17c-.958.432-1.877.89-2.681 1.376l-.393.246c-.42.072-.85.094-1.278.066-2.158.015-3.1-1.2-5.696-.356-1.266.427-2.35 1.194-3.414 1.997l-.637.483c-.213.161-.426.321-.641.478l-.324.232zm31.661-1.878c-1.769.432-3.508.275-3.902-.826a3.252 3.252 0 0 1-.945 1.09 2.955 2.955 0 0 1-1.29.536c1.472-1.194 1.842-3.796 1.611-4.963a4.67 4.67 0 0 0 1.503 1.696c.623.422 1.333.67 2.066.723-2.296-.976-3.738-4.254-3.678-5.388.649 1.075 3.03 3.022 5.744 4.044 2.632.992 3.11 2.705 2.54 4.762l-.057.193-.02-.119c-.243-1.114-1.987-2.128-3.572-1.748zm16.168-3.088c3.257-1.022 6.114-2.969 6.892-4.044.073 1.134-1.657 4.412-4.413 5.388a5.746 5.746 0 0 0 2.479-.723 5.073 5.073 0 0 0 1.803-1.696c-.276 1.167.167 3.77 1.934 4.963a3.958 3.958 0 0 1-1.548-.536 3.513 3.513 0 0 1-1.135-1.09c-.48 1.101-2.559 1.258-4.681.826-1.905-.38-4 .636-4.288 1.752l-.024.115-.059-.167c-.697-2.07-.131-3.792 3.04-4.788zm21.353 2.148c2.068 1.374 3.142 2.964 1.638 4.808.14-1.41-1.968-3.017-8.565-2.783-4.15.15-7.256-3.206-6.657-6.132.472 1 1.23 1.832 2.173 2.386.944.553 2.03.802 3.116.714-3.144-1.41-4.978-3.13-4.978-6.125.03-3.627 3.35-4.548 3.654-3.839-1.864.807-2.811 5.529 1.686 7.324 1.044.417 2.211.868 3.374 1.354l.465.196c.815.348 1.62.715 2.37 1.1.262.032.527.045.794.038a3.759 3.759 0 0 1-2.317-1.235c.304.063.617.063.92 0 .807-.402.476-3.156 1.93-3.342h.805c.337-.023.656-.168.9-.41-2.807-.052-3.325-1.235-3.325-1.235 2.216.662 3.52.097 5.261 0 4.202-.179 6.045 1.868 9.03 4.235 1.311 1.035 2.721 1.913 4.319 1.913 2.777 0 2.209-1.913 1.166-1.913a.642.642 0 0 0-.34.057.668.668 0 0 0-.265.226 1.046 1.046 0 0 1-.396.291 1.012 1.012 0 0 1-.482.074 1.12 1.12 0 0 1-.72-.237 1.18 1.18 0 0 1-.42-.649 1.216 1.216 0 0 1 .062-.778c.105-.245.287-.446.517-.57 1.353-.96 3.411-.252 4.533.812 2.419 2.307 3.34 7.026 4.83 7.026a.807.807 0 0 0 .412-.03.827.827 0 0 0 .347-.231.872.872 0 0 0 .198-.803 1.537 1.537 0 0 1 .223 1.422 1.81 1.81 0 0 1-.784.915 1.719 1.719 0 0 1-1.167.2c-2.382-.26-3.533-2.976-4.972-3.2 1.273-1.347 1.288-4.912-1.043-5.083 1.158.476 1.67 1.749.237 2.932.302.209 1.05-.275 1.05-.275-.353 1.384-1.619 5.292-4.648 5.292a6.43 6.43 0 0 1-3.282-1.087 15.224 15.224 0 0 1-.752-.499L97 51.05c-.337-.028-.69-.059-1.013-.09h-.56a36.816 36.816 0 0 1-.886-.657l-.691-.527c-1.04-.785-2.102-1.529-3.336-1.947-2.598-.849-3.54.372-5.7.357l-.156.006zm-38.297-9.135c.083-.108.16-.221.228-.34l.095-.18.084-.185c-.082-.114-.16-.229-.238-.344a4.35 4.35 0 0 1-.103.792l-.066.257zm-1.01.845a3.026 3.026 0 0 1-1.676.328c-3.3 0-3.784-3.353-6.63-3.353-3.3 0-3.667 4.054-1.984 4.054.981 0 .915-.723.732-1.025.717.096.922 1.305.41 2.211a2.531 2.531 0 0 1-1.676 1.03 2.509 2.509 0 0 1-1.903-.492.898.898 0 0 0 .414 1.062.88.88 0 0 0 .391.11c-.775.597-3.073-.361-2.663-2.683a1.817 1.817 0 0 1-1.003-1.054c.505.325.915.185 1.551.14 1.34-1.26.06-3.242.79-4.841a3.01 3.01 0 0 1 1.282-.074c-1.003-1.098-3.14-.457-3.14-.457a3.613 3.613 0 0 1-.5 1.546c-.281.47-.666.869-1.125 1.166.155.442.441.825.82 1.098-.563.295-1.683-.206-1.976-.53-.307.302-1.193.464-2.195-.295-1.003-.76-1.866-1.01-2.115-1.791a2.536 2.536 0 0 1 .292-1.88c-.3.136-.548.366-.708.655-.16.29-.222.624-.177.952a1.902 1.902 0 0 1-1.369-.494.569.569 0 0 1-.102-.737c.245-.347.541-.655.878-.913.34-.255.595-.607.732-1.01a5.464 5.464 0 0 1 1.515-2.358.973.973 0 0 1-.366-.922c.088-.604 1.134-1.068 1.134-1.473 0 0-1.954.633-1.954-2.322s4.062-5.004 5.68-5.063c1.873-1.216 2.831-2.778 2.195-3.582.753-.184 1.551.531 1.412 1.836 1.522-2.248-.593-3.833-1.64-3.442 1.135-1.769 3.323-1.68 4.692-.044 1.368 1.636.937 4.407-.527 5.32.505-1.186.732-3.522-.52-4.421.637 3.685-3.395 5.851-4.486 5.895.432-.466.701-1.06.769-1.695-.564.811-1.244 1.04-2.547 2.211-1.303 1.172-.388 3.096.593 2.779-.045-.37.036-.745.23-1.062.194-.317.49-.559.838-.685a2.484 2.484 0 0 0 .227 2.211c.154-3.515 3.279-4.79 4.391-4.179 1.112.612.688 2.477-.044 2.823.432-1.422-.966-2.204-2.283-.641-1.318 1.562-.337 3.095-1.113 4.223-.083.118-.179.226-.285.324 1.207-.295 2.554-1.15 2.195-3.81.622-.162 1.369.295 1.26 1.422a1.155 1.155 0 0 0 .453-.833 2.886 2.886 0 0 0 1.695-1.506l.069-.156c-.397-1.154-.506-2.68-.1-4.556.898-4.164-1.67-5.032-2.184-5.061 1.071-1.138 4.36-.219 3.783 3.019a2.12 2.12 0 0 0 .52-.695 2.242 2.242 0 0 0 .072-1.736 2.152 2.152 0 0 0-.462-.741c.577-1.459 3.247-2.064 3.48-3.23.193-.956-.576-1.168-.83-1.066.686-1.057 2.437 0 2.437 2.407 0 4.784-5.986 5.907-5.664 10.815.508-1.502 1.73-1.16 2.06-.306-.72.054-1.327 1.27-1.085 2.726.376.244.705.56.968.933a3.63 3.63 0 0 1 .656 2.344c0 1.4-1.178 2.366-1.998 1.998.652-.634.41-4.083-2.759-3.833.7.288 1.26.844 1.555 1.545a2.9 2.9 0 0 1 .019 2.2 1.09 1.09 0 0 0-.483-.642c-.007.351-.069.7-.183 1.032a1.7 1.7 0 0 0-.936.42 1.72 1.72 0 0 0-.528.884 3.644 3.644 0 0 1 3.484-.413c1.024.48 2.92.089 2.488-1.628 1.259.575 1.368 2.388.732 3.486a4.01 4.01 0 0 1-2.686 1.835 2.732 2.732 0 0 0 2.686.206c.26-.115.54-.164.819-.143l.166.02.006.032c.323.205.634.43.932.673l-.004-.011v-.002l-.006-.019-.001-.005-.002-.009-.003-.009-.001-.004-.003-.013-.001-.003-.002-.006v-.001l-.004-.016-.005-.017-.002-.007-.002-.009-.003-.011-.002-.007-.001-.006-.004-.012-.002-.009-.001-.005-.002-.006-.003-.012-.002-.006v-.003l-.004-.013-.002-.009-.001-.001-.001-.004v-.003l-.002-.006-.001-.002v-.002l-.002-.007-.001-.005-.001-.003-.003-.012-.003-.01c.07.063.133.131.192.205l.075.103c.096.334.204.658.327.977.177-.05.346-.125.501-.225l.151-.108c.884.195 2.03-.101 2.03-1.249a3.08 3.08 0 0 1 .32 2.934c2.518 3.563 6.458 5.922 8.246 6.862 1.845-.977 5.988-3.45 8.463-7.214.026.678.205 1.338.523 1.924-3.012 3.923-7.459 6.313-9 7.076-1.541-.748-5.981-3.145-9-7.076a4.21 4.21 0 0 0 .36-.867c-.27.351-.614.64-1.009.845zm-1.83-3.747-.001-.001-.003-.006-.002-.003-.068-.111-.008-.011-.114-.433A11.517 11.517 0 0 1 43 32.887V21.972a3.025 3.025 0 0 0 1.414-1.164c.346-.53.529-1.158.522-1.8A28.146 28.146 0 0 1 55 17c3.444.046 6.853.725 10.07 2.008-.007.641.174 1.27.519 1.8.345.53.837.936 1.411 1.164l-.007 10.915a11.494 11.494 0 0 1-.622 3.718l-.042.112.16-.023c.422-.078.798-.26.988-.511.06-.107.13-.207.21-.297l.125-.13a4.64 4.64 0 0 1-.068.244c.301-.242.614-.467.939-.673.335-.065.682-.023.996.117a2.734 2.734 0 0 0 2.693-.207 4.019 4.019 0 0 1-1.54-.635 4.052 4.052 0 0 1-1.153-1.206c-.61-1.101-.5-2.92.734-3.496-.448 1.722 1.46 2.114 2.487 1.633a3.643 3.643 0 0 1 3.5.414 1.725 1.725 0 0 0-.53-.887 1.704 1.704 0 0 0-.937-.421 3.379 3.379 0 0 1-.184-1.035c-.237.144-.41.374-.484.643a2.91 2.91 0 0 1 .02-2.206 2.88 2.88 0 0 1 1.557-1.55c-3.177-.25-3.419 3.209-2.766 3.845-.822.37-2.01-.6-2.01-2.004a3.65 3.65 0 0 1 .662-2.352 3.602 3.602 0 0 1 1.994-1.395 2.538 2.538 0 0 1 .734-2.602 2.974 2.974 0 0 0 .426 1.952 2.938 2.938 0 0 0 1.562 1.234 1.169 1.169 0 0 0 .455.835c-.11-1.131.646-1.59 1.262-1.427-.381 2.669.969 3.526 2.201 3.822a2.053 2.053 0 0 1-.286-.325c-.778-1.131.213-2.661-1.115-4.236-1.328-1.574-2.722-.784-2.29.643-.777-.347-1.261-2.21-.043-2.831s4.263.665 4.402 4.191a2.489 2.489 0 0 0 .228-2.217c.349.126.645.368.84.687.195.318.276.693.231 1.065.983.317 1.893-1.627.594-2.787s-1.988-1.39-2.56-2.218c.073.636.346 1.231.777 1.7-1.093-.044-5.158-2.217-4.498-5.913-1.254.894-1.027 3.237-.52 4.435-1.468-.902-1.901-3.704-.53-5.337 1.373-1.634 3.567-1.73 4.704.044-1.049-.392-3.177 1.235-1.643 3.452-.14-1.308.682-2.025 1.416-1.84-.653.805.308 2.372 2.201 3.592 1.6 0 5.672 2.026 5.672 4.997 0 2.972-1.967 2.329-1.967 2.329-.014.436 1.057.902 1.145 1.478a.985.985 0 0 1-.367.924 5.488 5.488 0 0 1 1.52 2.366c.134.406.39.76.733 1.012.346.255.65.562.903.91a.574.574 0 0 1-.103.739c-.374.34-.868.519-1.372.495a1.532 1.532 0 0 0-.888-1.612c.337.566.445 1.242.3 1.886-.256.783-1.093 1.034-2.127 1.796-1.035.761-1.923.599-2.201.296-.294.325-1.417.827-1.989.532.384-.27.674-.656.83-1.102a3.565 3.565 0 0 1-1.127-1.169 3.596 3.596 0 0 1-.495-1.551s-2.15-.643-3.155.458a3.015 3.015 0 0 1 1.284.074c.69 1.604-.558 3.593.792 4.857.638.044 1.05.185 1.556-.14a1.836 1.836 0 0 1-1.006 1.057c.411 2.328-1.893 3.289-2.67 2.69a.884.884 0 0 0 .659-.386.898.898 0 0 0 .118-.76 2.523 2.523 0 0 1-1.898.476 2.52 2.52 0 0 1-1.668-1.03c-.513-.894-.323-2.107.411-2.218-.176.289-.242 1.028.734 1.028 1.688 0 1.328-4.066-1.981-4.066-2.855 0-3.339 3.364-6.648 3.364l.066.022a3.033 3.033 0 0 1-1.676-.329 3.062 3.062 0 0 1-1.239-1.183 3.093 3.093 0 0 1 .126-3.3c-.027.752.468 1.135 1.068 1.252l-.001-.002-.001-.001-.002-.001-.003-.003-.013-.01-.002-.002-.007-.005-.004-.004-.002-.001-.001-.001-.009-.007-.013-.011-.008-.006-.001-.001-.006-.005-.003-.002-.005-.004-.012-.01-.005-.004-.004-.003-.01-.008-.001-.001a1.956 1.956 0 0 1-.497-.686c.323-.975.488-2 .49-3.03v-10.02a4.743 4.743 0 0 1-1.788-2.704 24.503 24.503 0 0 0-17.411 0 4.72 4.72 0 0 1-1.795 2.705v10.018a9.716 9.716 0 0 0 .497 3.038 1.97 1.97 0 0 1-.575.742c-.39-.087-.727-.267-.897-.512zm-.352-.443a1.716 1.716 0 0 0-.858-.417A13.47 13.47 0 0 1 42 32.432v-13.93A29.531 29.531 0 0 1 55.497 15 29.579 29.579 0 0 1 69 18.502v13.93a13.56 13.56 0 0 1-.221 2.419l-.096.476c-.083.01-.165.03-.247.057a1.721 1.721 0 0 0-.624.372c.302-1.078.456-2.198.457-3.324v-13.46a29.214 29.214 0 0 0-12.772-3.205 29.09 29.09 0 0 0-12.766 3.206v13.46c.002 1.058.136 2.11.398 3.132l.04.147z"/>
        </clipPath>
    </defs>
    <g clip-path="url(#gna58qu5ia)" transform="translate(-362 -4057)">
        <g clip-path="url(#v773t6gezb)" transform="translate(362 4057)">
            <path fill="#D4B594" d="M0 0h111v70H0V0z"/>
        </g>
    </g>
</svg>
