<?xml version="1.0" encoding="utf-8"?>
<svg width="82px" height="98px" viewBox="0 0 82 98" version="1.1" xmlns:xlink="http://www.w3.org/1999/xlink" xmlns="http://www.w3.org/2000/svg">
  <g id="logo-svg">
    <g id="logo-svg">
      <path d="M72.8283 52C76.1647 51.052 79.4325 46.166 77.6339 37.8378C75.8353 29.5097 80.9701 27.774 82 27.7158C79.8581 25.4405 73.2815 27.2782 74.4347 33.754C73.9998 33.3731 73.6452 32.8993 73.3937 32.3634C73.1423 31.8276 72.9996 31.2416 72.975 30.6435C72.9504 30.0452 73.0444 29.4483 73.251 28.8912C73.4575 28.334 73.772 27.8292 74.1738 27.4094C73.0205 24.4923 67.6795 23.2819 67.2128 20.9483C66.8283 19.0375 68.3661 18.6146 68.8742 18.8188C67.5012 16.7039 64 18.8188 64 23.6318C64 33.1997 75.9725 35.4459 75.3272 45.2616C74.2975 42.2571 71.8673 42.9427 71.2082 44.6491C72.9519 44.7803 74.3661 48.3246 72.8283 52Z" id="Path" fill="#000000" fill-rule="evenodd" stroke="none" />
      <path d="M9.17158 52C5.83526 51.052 2.56764 46.166 4.36614 37.8378C6.16479 29.5097 1.02982 27.774 0 27.7158C2.14198 25.4405 8.71863 27.2782 7.56522 33.754C8.00014 33.3731 8.35476 32.8993 8.60617 32.3634C8.85775 31.8276 9.00031 31.2416 9.02494 30.6435C9.04956 30.0452 8.95546 29.4483 8.74905 28.8912C8.54249 28.334 8.22803 27.8292 7.82605 27.4094C8.97945 24.4923 14.3204 23.2819 14.7871 20.9483C15.1717 19.0375 13.6339 18.6146 13.1259 18.8188C14.4988 16.7039 18 18.8188 18 23.6318C18 33.1997 6.02755 35.4459 6.6728 45.2616C7.68881 42.2571 10.1327 42.9427 10.7917 44.6491C9.04815 44.7803 7.63392 48.3246 9.17158 52Z" id="Path" fill="#000000" fill-rule="evenodd" stroke="none" />
      <path d="M65.1451 13.6323C64.9929 13.6263 64.8418 13.6593 64.7086 13.7277C64.5755 13.7962 64.4654 13.8973 64.3906 14.02C64.3158 14.1427 64.2792 14.2821 64.2849 14.4228C64.2906 14.5635 64.3384 14.7 64.4229 14.8171C61.4751 16.3697 59.3969 18.4942 57.2303 17.7587C56.547 17.5185 55.9722 17.071 55.5999 16.4897C55.2279 15.9083 55.0803 15.2273 55.1815 14.5584C53.8761 16.1599 52.7594 17.8857 51.8505 19.7063C52.8461 16.3267 54.3335 13.0876 56.2721 10.0778C56.3894 10.1212 56.5144 10.1442 56.6407 10.1459C56.7948 10.1459 56.9474 10.1177 57.0897 10.0627C57.2319 10.0078 57.3609 9.92736 57.4693 9.82601C57.5776 9.72464 57.6631 9.60443 57.7206 9.47232C57.7783 9.34022 57.8069 9.19884 57.8051 9.05643C57.8051 8.77109 57.6823 8.49743 57.464 8.29566C57.2456 8.09389 56.9495 7.98054 56.6407 7.98054C56.4865 7.97875 56.3335 8.00525 56.1905 8.0585C56.0476 8.11177 55.9175 8.19072 55.8077 8.29081C55.698 8.39089 55.611 8.5101 55.5516 8.64154C55.492 8.77296 55.4614 8.91398 55.4616 9.05643C55.4659 9.30255 55.5653 9.53914 55.7416 9.72373C53.3096 11.6712 51.6146 14.5992 47.8562 14.5992C43.4344 14.5992 42.1669 8.29377 46.5445 6.16926C46.5781 6.15135 46.606 6.12556 46.6254 6.09447C46.645 6.06339 46.6552 6.02813 46.6552 5.99222C46.6552 5.95632 46.645 5.92104 46.6254 5.88997C46.606 5.85889 46.5781 5.8331 46.5445 5.81517C44.8569 5.12607 43.5103 3.87712 42.7712 2.31517C42.9623 2.20559 43.1205 2.05335 43.2313 1.8725C43.342 1.69163 43.4018 1.48794 43.4049 1.28016C43.4049 0.940637 43.2591 0.615025 42.9992 0.374949C42.7394 0.134873 42.3869 0 42.0196 0C41.652 0 41.2997 0.134873 41.0399 0.374949C40.78 0.615025 40.634 0.940637 40.634 1.28016C40.6373 1.48794 40.6971 1.69163 40.8078 1.8725C40.9186 2.05335 41.0767 2.20559 41.2679 2.31517C40.5286 3.87712 39.1822 5.12607 37.4947 5.81517C37.461 5.8331 37.4329 5.85889 37.4135 5.88997C37.3941 5.92104 37.3839 5.95632 37.3839 5.99222C37.3839 6.02813 37.3941 6.06339 37.4135 6.09447C37.4329 6.12556 37.461 6.15135 37.4947 6.16926C41.9163 8.29377 40.5751 14.5992 36.1829 14.5992C32.4244 14.5992 30.7295 11.6712 28.2975 9.72373C28.4736 9.53914 28.573 9.30255 28.5775 9.05643C28.5775 8.76748 28.4532 8.49035 28.232 8.28603C28.011 8.08171 27.7111 7.96693 27.3984 7.96693C27.0856 7.96693 26.7858 8.08171 26.5646 8.28603C26.3434 8.49035 26.2193 8.76748 26.2193 9.05643C26.2193 9.34538 26.3434 9.6225 26.5646 9.8268C26.7858 10.0311 27.0856 10.1459 27.3984 10.1459C27.5247 10.1442 27.6495 10.1212 27.7668 10.0778C29.7054 13.0876 31.1929 16.3267 32.1885 19.7063C31.2749 17.8851 30.1533 16.1593 28.8428 14.5584C28.9315 15.2242 28.7746 15.8983 28.3975 16.4716C28.0204 17.0448 27.4451 17.484 26.7645 17.7179C24.598 18.4534 22.5346 16.356 19.5719 14.7763C19.6627 14.6274 19.6979 14.455 19.6719 14.2857C19.6458 14.1165 19.5602 13.96 19.428 13.8404C19.2957 13.7208 19.1245 13.6448 18.9408 13.6243C18.7573 13.6038 18.5714 13.6399 18.4122 13.727C18.2531 13.814 18.1294 13.9472 18.0605 14.1058C17.9916 14.2644 17.9812 14.4396 18.0311 14.6042C18.0809 14.7688 18.1882 14.9136 18.3362 15.0161C18.4843 15.1186 18.6648 15.1732 18.8497 15.1712C18.9909 15.1709 19.129 15.1331 19.2477 15.0623C22.1954 18.3716 24.3916 24.7587 24.3916 24.7587C27.3924 23.6356 30.5879 23.0221 33.8246 22.9474C25.8066 24.7587 22.3428 26.611 23.3157 28C26.2635 26.6381 32.159 24.5681 41.9899 24.5681C51.821 24.5681 57.8051 26.6518 60.6791 28C61.6372 26.6381 58.1882 24.7587 50.1701 22.9474C53.4068 23.0221 56.6024 23.6356 59.6032 24.7587C59.6032 24.7587 61.814 18.3716 64.7471 15.0623C64.8657 15.1331 65.0039 15.1709 65.1451 15.1712C65.3718 15.1712 65.5893 15.088 65.7496 14.9399C65.9098 14.7917 66 14.5908 66 14.3813C66 14.1718 65.9098 13.9709 65.7496 13.8228C65.5893 13.6747 65.3718 13.5914 65.1451 13.5914L65.1451 13.6323Z" id="Path" fill="#82572B" fill-rule="evenodd" stroke="none" />
      <path d="M17.4628 64.865L17.4628 37.9457C25.4225 33.8732 34.1379 31.6845 42.9931 31.5341C51.8518 31.6912 60.5705 33.8796 68.5372 37.9457L68.5372 64.865C68.5351 67.2853 68.1814 69.6914 67.4884 72C68.0901 71.5159 68.7167 71.0666 69.3652 70.6541C69.7838 68.7556 69.9967 66.8136 70 64.865L70 37.0048C61.6268 32.5349 52.3876 30.1386 42.9931 30C33.6027 30.1371 24.3677 32.5337 16 37.0048L16 64.865C16.0031 66.8136 16.216 68.7556 16.6347 70.6541C17.2808 71.0633 17.9029 71.5128 18.4978 72C17.816 69.689 17.4672 67.2841 17.4628 64.865L17.4628 64.865Z" id="Path" fill="#000000" fill-rule="evenodd" stroke="none" />
      <path d="M40.9928 96.3174C38.54 95.2695 28.2384 90.5019 21.1687 82.0149C20.8015 82.385 20.4113 82.7302 20 83.048C28.3683 93.0997 40.9928 98 40.9928 98C40.9928 98 53.6317 93.0997 62 83.048C61.5886 82.7253 61.1982 82.3751 60.8313 82C53.7616 90.4872 43.46 95.2546 40.9928 96.3174Z" id="Path" fill="#82572B" fill-rule="evenodd" stroke="none" />
      <path d="M66 43.9444C64.8528 43.4886 63.8673 42.6756 63.1772 41.6152C62.4871 40.5549 62.1257 39.2984 62.1418 38.0163C55.706 35.4506 48.8876 34.0911 42 34C35.1169 34.0909 28.3032 35.4506 21.8724 38.0163C21.8853 39.2998 21.5209 40.5565 20.8285 41.6166C20.1361 42.6768 19.1487 43.4893 18 43.9444L18 65.7747C18.0038 68.5934 18.5238 71.3854 19.5319 74C20.0663 73.8508 20.563 73.5809 20.9869 73.2096C21.4109 72.8385 21.7518 72.3747 21.9859 71.851C21.3351 69.897 20.9995 67.8436 20.993 65.7747L20.993 45.7377C22.7725 44.4436 24.0463 42.5234 24.5817 40.3282C35.8306 36.0652 48.1552 36.0652 59.4041 40.3282C59.9393 42.5195 61.2073 44.4384 62.9786 45.7377L62.9786 65.7747C62.9768 67.8379 62.646 69.8865 61.9999 71.8361C62.2298 72.3644 62.5692 72.8326 62.9937 73.2068C63.4181 73.5811 63.9168 73.852 64.4538 74C65.462 71.3854 65.9819 68.5934 65.9858 65.7747L66 43.9444Z" id="Path" fill="#82572B" fill-rule="evenodd" stroke="none" />
      <path d="M42.0284 90.4275C38.3378 88.4886 30.0661 83.5267 25.0605 76.0154C25.0095 77.3683 24.6449 78.686 24 79.8473C30.0378 87.71 38.9174 92.5039 42.0001 94C45.0825 92.4733 53.9764 87.6947 60 79.8473C59.3649 78.6768 59.0056 77.3556 58.9537 76C54.0047 83.5267 45.7188 88.4733 42.0284 90.4275Z" id="Path" fill="#282844" fill-rule="evenodd" stroke="none" />
      <path d="M31.9858 67.6137C30.3026 67.2637 28.8842 66.3256 27.7305 64.7996C26.5769 63.2735 26 61.3196 26 58.9381C26 56.5467 26.6667 54.4617 28 52.6829C29.3428 50.904 31.2058 50.0097 33.5888 50C35.9906 50 37.9197 50.8165 39.3759 52.4496C40.8322 54.0826 41.565 56.1969 41.5744 58.7922L41.5744 58.8215C41.5744 61.2224 41.026 63.1373 39.9292 64.5663C38.8322 65.9855 37.7021 66.8944 36.539 67.2928C40.019 69.13 43.1395 70.4666 45.9008 71.3027C48.6714 72.1483 50.8606 72.5712 52.4681 72.5712C54.0758 72.5712 55.2483 72.4837 55.9858 72.3087C56.7235 72.1338 57.3948 71.9442 58 71.74L58 72.4399C57.5935 72.9064 56.8133 73.2807 55.6597 73.5625C54.5059 73.8446 53.1631 73.9903 51.6313 74C47.0922 74 40.5438 71.8713 31.9858 67.6137ZM28.1278 58.5736C28.1278 61.3925 28.6951 63.4533 29.8299 64.7558C30.9646 66.0584 32.3357 66.7145 33.9434 66.7242C35.8251 66.7242 37.2058 66.0049 38.0852 64.5663C38.9741 63.1179 39.4232 61.305 39.4327 59.1276C39.4327 56.3962 38.8416 54.3645 37.6596 53.0329C36.4871 51.7011 35.0687 51.0303 33.4044 51.0206L33.3901 51.0206C31.8014 51.0206 30.5249 51.7205 29.5604 53.1202C28.6053 54.5201 28.1278 56.3378 28.1278 58.5736Z" id="Shape" fill="#282844" stroke="none" />
      <path d="M46.2802 61.1765L46.2802 50.8235C46.2802 50.008 46.1964 49.4746 46.0288 49.2236C45.8611 48.9815 45.5146 48.8157 44.9893 48.7261L44 48.5647L44 48L51.0419 48C52.7857 48 54.1437 48.3317 55.1161 48.995C56.0885 49.6583 56.5804 50.5457 56.5915 51.6572C56.5915 52.7688 56.0439 53.7099 54.9484 54.4807C54.4567 54.8303 53.9258 55.0902 53.3556 55.2606C54.887 55.3771 56.0439 55.8342 56.8262 56.632C57.6087 57.4298 58 58.4293 58 59.6303C58 60.8403 57.3237 61.8712 55.9712 62.7227C54.6187 63.5742 52.657 64 50.0863 64L44 64L44 63.4354L44.9724 63.2741C45.5872 63.1753 45.9561 62.9782 46.079 62.6825C46.2131 62.3866 46.2802 61.8847 46.2802 61.1765ZM49.952 55.6909L48.527 55.6909L48.527 63.1664C51.1983 63.1664 53.0259 62.8437 54.0095 62.1984C54.9932 61.553 55.4851 60.5893 55.4851 59.3076C55.4851 57.2819 54.2834 56.1121 51.8802 55.7984C51.3438 55.7267 50.7011 55.6909 49.952 55.6909ZM50.17 48.8336L48.527 48.8336L48.527 54.8573L50.0024 54.8573C51.9697 54.8573 53.2383 54.2431 53.8083 53.0153C53.9872 52.6208 54.0766 52.1995 54.0766 51.7513C54.0543 49.8152 52.752 48.8427 50.17 48.8336Z" id="Shape" fill="#282844" stroke="none" />
    </g>
  </g>
</svg>