<svg width="111" height="70" viewBox="0 0 111 70" xmlns="http://www.w3.org/2000/svg">
    <defs>
        <clipPath id="8z12qkq04a">
            <path d="M1920 0v4598H0V0h1920z"/>
        </clipPath>
        <clipPath id="e3xz7dej2b">
            <path d="M0 2.816C0 .409 1.75-.648 2.437.409c-.254-.102-1.023.11-.83 1.065.233 1.167 2.903 1.772 3.48 3.23-.201.21-.358.463-.461.742a2.256 2.256 0 0 0 .07 1.736c.127.268.304.505.521.695C4.641 4.639 7.93 3.72 9 4.857c-.515.03-3.082.898-2.183 5.062.9 4.164-.735 6.607-2.403 7.081.769-1.838.062-3.61-.81-3.675.33-.854 1.545-1.196 2.06.306C5.986 8.723 0 7.6 0 2.816z"/>
        </clipPath>
        <clipPath id="313zcn036c">
            <path d="M9 2.816C9 7.6 3.014 8.723 3.336 13.63c.508-1.502 1.73-1.16 2.06-.306-.872.065-1.579 1.837-.81 3.675-1.668-.474-3.302-2.917-2.403-7.081C3.083 5.755.515 4.887 0 4.858c1.071-1.138 4.36-.219 3.783 3.019a2.12 2.12 0 0 0 .52-.695 2.242 2.242 0 0 0 .072-1.736 2.152 2.152 0 0 0-.462-.741c.577-1.459 3.247-2.064 3.48-3.23.193-.956-.576-1.168-.83-1.066C7.249-.648 9 .41 9 2.816z"/>
        </clipPath>
        <clipPath id="e3jux3opsd">
            <path d="M16.933 4.246c1.31 1.035 2.72 1.913 4.318 1.913 2.777 0 2.209-1.913 1.166-1.913a.642.642 0 0 0-.34.057.668.668 0 0 0-.265.226 1.046 1.046 0 0 1-.396.291 1.012 1.012 0 0 1-.482.074 1.12 1.12 0 0 1-.72-.237 1.18 1.18 0 0 1-.42-.649 1.216 1.216 0 0 1 .062-.778c.105-.245.287-.446.517-.57 1.353-.96 3.411-.252 4.533.812 2.419 2.307 3.34 7.026 4.83 7.026a.807.807 0 0 0 .412-.03.827.827 0 0 0 .347-.231.872.872 0 0 0 .198-.803 1.537 1.537 0 0 1 .223 1.422 1.81 1.81 0 0 1-.784.915 1.719 1.719 0 0 1-1.167.2c-2.382-.26-3.533-2.976-4.972-3.2 1.273-1.347 1.288-4.912-1.043-5.083 1.158.476 1.67 1.749.237 2.932.302.209 1.05-.275 1.05-.275-.353 1.384-1.619 5.292-4.648 5.292a6.43 6.43 0 0 1-3.282-1.087c-.61-.377-1.19-.809-1.766-1.247l-.691-.527c-1.04-.785-2.102-1.529-3.336-1.947-2.598-.849-3.54.372-5.7.357a5.487 5.487 0 0 1-2.674-.5A5.682 5.682 0 0 1 0 4.954a5.711 5.711 0 0 0 3.728 1.28A3.759 3.759 0 0 1 1.41 4.998c.304.063.617.063.92 0 .807-.402.476-3.156 1.93-3.342h.805c.337-.023.656-.168.9-.41C3.159 1.194 2.64.011 2.64.011c2.216.662 3.52.097 5.261 0 4.202-.179 6.045 1.868 9.03 4.235z"/>
        </clipPath>
        <clipPath id="784da1eqxe">
            <path d="M4.039.221c-1.864.807-2.811 5.529 1.686 7.324 1.044.417 2.211.868 3.374 1.354l.465.196c4.174 1.784 8.072 4.037 5.732 6.905.14-1.41-1.968-3.017-8.565-2.783-4.15.15-7.256-3.206-6.657-6.132.472 1 1.23 1.832 2.173 2.386.944.553 2.03.802 3.116.714C2.219 8.775.385 7.055.385 4.06.415.433 3.735-.488 4.039.221z"/>
        </clipPath>
        <clipPath id="vac2pc3h6f">
            <path d="M11.961.221c.311-.709 3.632.212 3.617 3.84 0 2.994-1.834 4.713-4.977 6.124a5.307 5.307 0 0 0 3.136-.703 5.458 5.458 0 0 0 2.189-2.397c.599 2.926-2.508 6.283-6.657 6.132C2.672 12.983.564 14.59.704 16c-2.34-2.868 1.558-5.121 5.73-6.905l.463-.196c1.162-.486 2.328-.937 3.37-1.354 4.505-1.795 3.558-6.517 1.694-7.324z"/>
        </clipPath>
        <clipPath id="fms2j6kg8g">
            <path d="M10.197 0c.073 1.134-1.657 4.412-4.413 5.388a5.746 5.746 0 0 0 2.479-.723 5.073 5.073 0 0 0 1.803-1.696C9.79 4.136 10.233 6.74 12 7.932a3.958 3.958 0 0 1-1.548-.536 3.513 3.513 0 0 1-1.135-1.09c-.48 1.101-2.559 1.258-4.681.826C2.666 6.738.492 7.84.325 9c-.786-2.143-.277-3.933 2.98-4.956C6.562 3.022 9.42 1.075 10.197 0z"/>
        </clipPath>
        <clipPath id="daxv9o8noh">
            <path d="M1.502 0c.649 1.075 3.03 3.022 5.744 4.044C9.96 5.067 10.384 6.857 9.73 9c-.14-1.16-1.951-2.262-3.593-1.868-1.769.432-3.508.275-3.902-.826a3.252 3.252 0 0 1-.945 1.09A2.955 2.955 0 0 1 0 7.932c1.472-1.194 1.842-3.796 1.611-4.963a4.67 4.67 0 0 0 1.503 1.696c.623.422 1.333.67 2.066.723C2.884 4.412 1.442 1.134 1.502 0z"/>
        </clipPath>
        <clipPath id="hn4emwtagi">
            <path d="M12.01 0c.183 0 .36.067.49.187s.202.283.202.453a.584.584 0 0 1-.086.296.645.645 0 0 1-.23.222c.37.78 1.042 1.405 1.886 1.75.017.009.031.021.04.037a.096.096 0 0 1 0 .102.107.107 0 0 1-.04.038c-2.189 1.062-1.555 4.215.656 4.215 1.307 0 2.115-.709 2.895-1.468l.293-.286c.244-.238.49-.472.755-.684a.496.496 0 0 1-.14-.334.5.5 0 0 1 .045-.207.537.537 0 0 1 .128-.176.625.625 0 0 1 .416-.155c.155 0 .303.057.412.158a.518.518 0 0 1 .003.765.624.624 0 0 1-.414.16.553.553 0 0 1-.185-.034 18.595 18.595 0 0 0-2.21 4.814A13.91 13.91 0 0 1 18.59 7.28c-.05.335.023.675.209.966.186.29.474.514.815.634 1.083.368 2.123-.694 3.596-1.47a.362.362 0 0 1-.016-.399.399.399 0 0 1 .16-.146.44.44 0 0 1 .218-.048v-.02c.113 0 .222.041.302.115a.38.38 0 0 1 .125.28.38.38 0 0 1-.125.279.446.446 0 0 1-.302.116.39.39 0 0 1-.2-.055c-1.466 1.655-2.571 4.848-2.571 4.848a14.417 14.417 0 0 0-4.717-.905c4.01.905 5.734 1.845 5.255 2.526-1.437-.674-4.43-1.716-9.345-1.716-4.915 0-7.863 1.035-9.337 1.716-.487-.695 1.245-1.62 5.254-2.526a14.417 14.417 0 0 0-4.716.905l-.013-.036c-.126-.357-1.177-3.26-2.56-4.812a.39.39 0 0 1-.198.055.444.444 0 0 1-.257-.078.389.389 0 0 1-.152-.206.36.36 0 0 1 .014-.25.399.399 0 0 1 .176-.189.449.449 0 0 1 .508.057.364.364 0 0 1 .072.468c1.481.79 2.513 1.839 3.596 1.47.34-.116.628-.336.817-.622a1.4 1.4 0 0 0 .222-.957c.656.8 1.216 1.664 1.673 2.574a18.595 18.595 0 0 0-2.21-4.814.553.553 0 0 1-.185.034.615.615 0 0 1-.417-.16.524.524 0 0 1-.172-.385c0-.144.062-.283.172-.385.11-.102.26-.16.417-.16.157 0 .307.058.417.16.11.102.173.24.173.385a.496.496 0 0 1-.14.334C6.365 5.836 7.212 7.3 9.09 7.3c2.197 0 2.867-3.153.656-4.215a.107.107 0 0 1-.04-.038.096.096 0 0 1 0-.102.107.107 0 0 1 .04-.037c.844-.345 1.517-.97 1.887-1.75a.644.644 0 0 1-.23-.222.584.584 0 0 1-.087-.296c0-.17.073-.332.203-.453A.723.723 0 0 1 12.01 0z"/>
        </clipPath>
        <clipPath id="p7wjtltg9j">
            <path d="m0 0 7.987.01C8.31.04 8.663.072 9 .1H.261A1.62 1.62 0 0 0 0 0z"/>
        </clipPath>
        <clipPath id="cy7rsmmf8k">
            <path d="M9.688 0c.452.03.926.054 1.413.07L12 .1H0A8.61 8.61 0 0 1 .346.063C.729.033 1.148.011 1.583 0z"/>
        </clipPath>
        <clipPath id="ijwye90zal">
            <path d="M7.849 0c.038.033.09.067.151.1H0C.06.067.151.033.151 0z"/>
        </clipPath>
        <clipPath id="tevhsriemm">
            <path d="M9 0a1.637 1.637 0 0 0-.262.1H0C.338.072.675.041 1.013.01z"/>
        </clipPath>
        <clipPath id="0pj0zfrb0n">
            <path d="M10.41 0c.434.01.853.032 1.237.063.128.01.246.023.353.037H0L.899.07c.487-.016.96-.04 1.413-.07z"/>
        </clipPath>
        <clipPath id="llqcajtwno">
            <path d="M13.497 0A29.579 29.579 0 0 1 27 3.502v13.93a13.551 13.551 0 0 1-.317 2.895c-.325.206-.638.43-.939.673.347-1.154.524-2.357.525-3.568V3.972A29.214 29.214 0 0 0 13.497.768 29.09 29.09 0 0 0 .73 3.973v13.46c.003 1.21.177 2.411.518 3.567a9.452 9.452 0 0 0-.932-.673c-.209-.95-.315-1.92-.317-2.895V3.502A29.531 29.531 0 0 1 13.497 0z"/>
        </clipPath>
        <clipPath id="w6mzpj21mp">
            <path d="M20.416 0c.183.188.378.363.584.524C16.816 5.55 10.496 8 10.496 8S4.184 5.55 0 .524C.206.365.4.192.584.007 4.12 4.251 9.27 6.635 10.496 7.16c1.234-.532 6.385-2.915 9.92-7.159z"/>
        </clipPath>
        <clipPath id="08w1aihrtq">
            <path d="M12 0c3.444.046 6.853.725 10.07 2.008-.007.641.174 1.27.519 1.8.345.53.837.936 1.411 1.164l-.007 10.915A11.482 11.482 0 0 1 23.227 20a1.846 1.846 0 0 1-.73-.397 1.95 1.95 0 0 1-.497-.685c.323-.975.488-2 .49-3.03V5.867a4.743 4.743 0 0 1-1.788-2.704 24.503 24.503 0 0 0-17.411 0A4.72 4.72 0 0 1 1.496 5.87v10.018a9.716 9.716 0 0 0 .497 3.038 1.97 1.97 0 0 1-.5.68c-.212.185-.46.32-.727.395A11.482 11.482 0 0 1 0 15.887V4.972a3.025 3.025 0 0 0 1.414-1.164c.346-.53.529-1.158.522-1.8A28.146 28.146 0 0 1 12 0z"/>
        </clipPath>
        <clipPath id="ncd0mpwrpr">
            <path d="M17.477 0c.026.678.205 1.338.523 1.924C14.988 5.847 10.541 8.237 9 9c-1.541-.748-5.981-3.145-9-7.076C.322 1.343.505.684.53.008 3.033 3.763 7.17 6.244 9.014 7.214c1.845-.977 5.988-3.45 8.463-7.214z"/>
        </clipPath>
        <clipPath id="g2mdr6xm7s">
            <path d="M9.678 1.299C10.812-.47 13-.381 14.368 1.255c1.37 1.636.938 4.407-.526 5.32.505-1.186.732-3.522-.52-4.421.637 3.685-3.395 5.851-4.486 5.895.432-.466.701-1.06.769-1.695-.564.811-1.244 1.04-2.547 2.211-1.303 1.172-.388 3.096.593 2.779-.045-.37.036-.745.23-1.062.194-.317.49-.559.838-.685a2.484 2.484 0 0 0 .227 2.211c.154-3.515 3.279-4.79 4.391-4.179 1.112.612.688 2.477-.044 2.823.432-1.422-.966-2.204-2.283-.641-1.318 1.562-.337 3.095-1.113 4.223-.083.118-.179.226-.285.324 1.207-.295 2.554-1.15 2.195-3.81.622-.162 1.369.295 1.26 1.422a1.155 1.155 0 0 0 .453-.833 2.886 2.886 0 0 0 1.531-1.206 2.92 2.92 0 0 0 .423-1.911 2.53 2.53 0 0 1 .82 2.572c.801.218 1.503.71 1.985 1.392a3.63 3.63 0 0 1 .656 2.344c0 1.4-1.178 2.366-1.998 1.998.652-.634.41-4.083-2.759-3.833.7.288 1.26.844 1.555 1.545a2.9 2.9 0 0 1 .019 2.2 1.09 1.09 0 0 0-.483-.642c-.007.351-.069.7-.183 1.032a1.7 1.7 0 0 0-.936.42 1.72 1.72 0 0 0-.528.884 3.644 3.644 0 0 1 3.484-.413c1.024.48 2.92.089 2.488-1.628 1.259.575 1.368 2.388.732 3.486a4.01 4.01 0 0 1-2.686 1.835 2.732 2.732 0 0 0 2.686.206 1.708 1.708 0 0 1 1.239-.059c.406.136.747.42.956.796.557.803 2.928.914 2.928-.737a3.08 3.08 0 0 1-1.098 4.484 3.026 3.026 0 0 1-1.676.328c-3.3 0-3.784-3.353-6.63-3.353-3.3 0-3.667 4.054-1.984 4.054.981 0 .915-.723.732-1.025.717.096.922 1.305.41 2.211a2.531 2.531 0 0 1-1.676 1.03 2.509 2.509 0 0 1-1.903-.492.898.898 0 0 0 .414 1.062.88.88 0 0 0 .391.11c-.775.597-3.073-.361-2.663-2.683a1.817 1.817 0 0 1-1.003-1.054c.505.325.915.185 1.551.14 1.34-1.26.06-3.242.79-4.841a3.01 3.01 0 0 1 1.282-.074c-1.003-1.098-3.14-.457-3.14-.457a3.613 3.613 0 0 1-.5 1.546c-.281.47-.666.869-1.125 1.166.155.442.441.825.82 1.098-.563.295-1.683-.206-1.976-.53-.307.302-1.193.464-2.195-.295-1.003-.76-1.866-1.01-2.115-1.791a2.536 2.536 0 0 1 .292-1.88c-.3.136-.548.366-.708.655-.16.29-.222.624-.177.952a1.902 1.902 0 0 1-1.369-.494.569.569 0 0 1-.102-.737c.245-.347.541-.655.878-.913.34-.255.595-.607.732-1.01a5.464 5.464 0 0 1 1.515-2.358.973.973 0 0 1-.366-.922c.088-.604 1.134-1.068 1.134-1.473 0 0-1.954.633-1.954-2.322s4.062-5.004 5.68-5.063C9.582 5.271 10.54 3.71 9.904 2.905c.753-.184 1.551.531 1.412 1.836 1.522-2.248-.593-3.833-1.64-3.442zm-4.464 15.63c-.165.363-.552.59-.968.805l-.28.144c-.605.315-1.181.666-1.145 1.432.724-1.547 2.7-.486 2.393-2.38zm1.543-2.828-.152.009c-.203.024-.397.1-.564.218-.908.848-.659 1.312-1.157 2.16a.155.155 0 0 1 0 .044c.282-.2.499-.48.622-.803.769.14 1.91-.48 1.698-1.54a1.222 1.222 0 0 0-.6-.08zM5.69 8.153c-1.69.575-1.756 2.933-1.163 3.832.38.575 1.368.847 1.683.206-1.09-.486-1.588-2.638-.52-4.038z"/>
        </clipPath>
        <clipPath id="ttg3ovxrkt">
            <path d="M11.593 1.256c1.372-1.634 3.566-1.73 4.703.044-1.049-.392-3.177 1.235-1.643 3.452-.14-1.308.682-2.025 1.416-1.84-.653.805.308 2.372 2.201 3.592 1.6 0 5.672 2.026 5.672 4.997 0 2.972-1.967 2.329-1.967 2.329-.014.436 1.057.902 1.145 1.478a.985.985 0 0 1-.367.924 5.488 5.488 0 0 1 1.52 2.366c.134.406.39.76.733 1.012.346.255.65.562.903.91a.574.574 0 0 1-.103.739c-.374.34-.868.519-1.372.495a1.532 1.532 0 0 0-.888-1.612c.337.566.445 1.242.3 1.886-.256.783-1.093 1.034-2.127 1.796-1.035.761-1.923.599-2.201.296-.294.325-1.417.827-1.989.532.384-.27.674-.656.83-1.102a3.565 3.565 0 0 1-1.127-1.169 3.596 3.596 0 0 1-.495-1.551s-2.15-.643-3.155.458a3.015 3.015 0 0 1 1.284.074c.69 1.604-.558 3.593.792 4.857.638.044 1.05.185 1.556-.14a1.836 1.836 0 0 1-1.006 1.057c.411 2.328-1.893 3.289-2.67 2.69a.884.884 0 0 0 .659-.386.898.898 0 0 0 .118-.76 2.523 2.523 0 0 1-1.898.476 2.52 2.52 0 0 1-1.668-1.03c-.513-.894-.323-2.107.411-2.218-.176.289-.242 1.028.734 1.028 1.688 0 1.328-4.066-1.981-4.066-2.855 0-3.339 3.364-6.648 3.364l.066.022a3.033 3.033 0 0 1-1.676-.329 3.062 3.062 0 0 1-1.239-1.183 3.093 3.093 0 0 1 .126-3.3c-.058 1.633 2.341 1.522 2.935.739.21-.377.552-.662.96-.799.406-.136.85-.115 1.242.06a2.734 2.734 0 0 0 2.693-.207 4.019 4.019 0 0 1-1.54-.635 4.052 4.052 0 0 1-1.153-1.206c-.61-1.101-.5-2.92.734-3.496-.448 1.722 1.46 2.114 2.487 1.633a3.643 3.643 0 0 1 3.5.414 1.725 1.725 0 0 0-.53-.887 1.704 1.704 0 0 0-.937-.421 3.379 3.379 0 0 1-.184-1.035c-.237.144-.41.374-.484.643a2.91 2.91 0 0 1 .02-2.206 2.88 2.88 0 0 1 1.557-1.55c-3.177-.25-3.419 3.209-2.766 3.845-.822.37-2.01-.6-2.01-2.004a3.65 3.65 0 0 1 .662-2.352 3.602 3.602 0 0 1 1.994-1.395 2.538 2.538 0 0 1 .734-2.602 2.974 2.974 0 0 0 .426 1.952 2.938 2.938 0 0 0 1.562 1.234 1.169 1.169 0 0 0 .455.835c-.11-1.131.646-1.59 1.262-1.427-.381 2.669.969 3.526 2.201 3.822a2.053 2.053 0 0 1-.286-.325c-.778-1.131.213-2.661-1.115-4.236-1.328-1.574-2.722-.784-2.29.643-.777-.347-1.261-2.21-.043-2.831s4.263.665 4.402 4.191a2.489 2.489 0 0 0 .228-2.217c.349.126.645.368.84.687.195.318.276.693.231 1.065.983.317 1.893-1.627.594-2.787s-1.988-1.39-2.56-2.218c.073.636.346 1.231.777 1.7-1.093-.044-5.158-2.217-4.498-5.913-1.254.894-1.027 3.237-.52 4.435-1.468-.902-1.901-3.704-.53-5.337zm9.142 15.664c-.315 1.9 1.66.835 2.393 2.387.04-.768-.536-1.12-1.143-1.436l-.28-.145c-.416-.216-.804-.443-.97-.806zm-1.423-2.829a1.224 1.224 0 0 0-.602.079h.015c-.183 1.064.962 1.685 1.695 1.545.124.323.338.603.616.806v-.045c-.499-.85-.25-1.316-1.159-2.166a1.229 1.229 0 0 0-.565-.219zm.99-5.99c1.072 1.404.573 3.563-.528 4.05.323.644 1.314.37 1.696-.206.594-.887.52-3.268-1.167-3.844z"/>
        </clipPath>
        <clipPath id="6agqxt8vku">
            <path d="m22.727 0 .376.01c1.74.097 3.042.66 5.25 0l-.007.015c-.068.133-.683 1.166-3.28 1.215.238.256.557.416.9.451h.805c.838.107 1.082 1.064 1.294 1.93l.084.34c.128.496.27.915.55 1.053.303.063.616.063.92 0a3.762 3.762 0 0 1-2.316 1.23A5.728 5.728 0 0 0 31 4.954a5.675 5.675 0 0 1-2.139 1.724 5.506 5.506 0 0 1-2.673.497c-2.158.015-3.1-1.2-5.696-.356-2.194.74-3.841 2.502-5.79 3.701a6.446 6.446 0 0 1-3.28 1.081c-3.028 0-4.258-3.886-4.646-5.263 0 0 .748.481 1.05.274-1.432-1.177-.921-2.442.237-2.916-2.338.17-2.338 3.716-1.043 5.092-1.438.222-2.59 2.924-4.97 3.183-.4.073-.81.002-1.166-.2a1.805 1.805 0 0 1-.783-.91 1.52 1.52 0 0 1 .223-1.48.883.883 0 0 0 .19.783.813.813 0 0 0 .738.275c1.489 0 2.41-4.693 4.826-6.987 1.115-1.059 3.179-1.762 4.531-.807.23.123.412.322.517.566.106.243.128.516.062.774a1.179 1.179 0 0 1-.42.645c-.207.16-.461.243-.72.235a1.016 1.016 0 0 1-.48-.073 1.043 1.043 0 0 1-.397-.29.666.666 0 0 0-.266-.223.645.645 0 0 0-.338-.058c-1.043 0-1.619 1.903 1.157 1.903 1.633 0 3.043-.874 4.352-1.903C17.061 1.87 18.902-.167 23.103.011z"/>
        </clipPath>
        <clipPath id="3wctxuprov">
            <path d="M5.33 0c.63 0 .947.196.953.587 0 .302-.17.506-.51.613-.1.028-.201.042-.302.042-.321 0-.636-.115-.945-.344C4.224.663 4.028.53 3.94.503a.675.675 0 0 0-.236-.05c-.517 0-.53.579-.038 1.737L6.35 8.633l3.307-7.576c.126-.28.085-.461-.123-.545C9.332.428 8.942.386 8.362.386V0h3.629L12 .386c-.643.022-1.068.148-1.276.377a1.438 1.438 0 0 0-.226.395L6.49 10h-.878L2.202 2.232C1.862 1.46 1.59.97 1.389.763 1.194.556.898.44.5.411A6.142 6.142 0 0 0 0 .394V0h5.33z"/>
        </clipPath>
        <clipPath id="y3d1fa38iw">
            <path d="M6.49 0v1.546h-.352C6.038.874 5.754.532 5.285.521h-2.91v4.277h2.03c.224 0 .355-.033.396-.1.047-.068.097-.208.15-.42l.088-.37h.37v2.285h-.37c-.094-.46-.182-.72-.264-.781-.076-.062-.202-.093-.378-.093H2.374v4.16h3.421c.475 0 .76-.342.853-1.025H7V10H0v-.353l.51-.1c.317-.062.51-.186.58-.37.07-.185.106-.5.106-.942v-6.47c0-.51-.044-.84-.132-.992C.976.616.794.51.519.453L0 .354V0h6.49z"/>
        </clipPath>
        <clipPath id="3capfv15cx">
            <path d="M4.743 0C6.244 0 7.45.476 8.36 1.429c.91.953 1.368 2.186 1.374 3.7v.017c0 1.4-.343 2.517-1.028 3.351-.686.828-1.392 1.358-2.12 1.59 2.176 1.072 4.126 1.852 5.852 2.34 1.732.493 3.1.74 4.105.74 1.004 0 1.737-.052 2.198-.154.461-.102.88-.212 1.259-.331v.408c-.254.272-.742.49-1.463.655-.72.164-1.56.25-2.518.255-2.836 0-6.93-1.242-12.278-3.725-1.052-.205-1.938-.752-2.66-1.642C.362 7.743 0 6.603 0 5.213c0-1.394.417-2.61 1.25-3.648C2.09.527 3.254.005 4.743 0zm-.115.595c-1.002 0-1.8.409-2.403 1.225-.597.817-.895 1.877-.895 3.181 0 1.645.354 2.847 1.064 3.607.709.76 1.566 1.142 2.57 1.148 1.177 0 2.04-.42 2.59-1.259.555-.845.835-1.902.841-3.173 0-1.593-.369-2.778-1.108-3.555C6.554.992 5.667.601 4.627.595z"/>
        </clipPath>
        <clipPath id="tt32lntjqy">
            <path d="M4.024 0c.996 0 1.772.207 2.328.622.556.414.837.969.843 1.664 0 .694-.313 1.283-.939 1.764-.28.219-.584.381-.91.488.875.073 1.536.358 1.983.857.447.499.671 1.123.671 1.874 0 .756-.386 1.4-1.16 1.933-.772.532-1.893.798-3.362.798H0v-.353l.556-.1c.35-.062.562-.186.632-.37.077-.185.115-.5.115-.942v-6.47c0-.51-.048-.843-.144-1C1.063.613.865.51.565.454L0 .353V0h4.024zm-.623 4.807h-.814v4.672c1.526 0 2.57-.202 3.133-.605.562-.403.843-1.006.843-1.807 0-1.266-.687-1.997-2.06-2.193a7.743 7.743 0 0 0-1.102-.067zM3.526.52h-.94v3.765h.844c1.124 0 1.849-.384 2.175-1.152.102-.246.153-.51.153-.79C5.745 1.134 5.001.527 3.526.521z"/>
        </clipPath>
        <clipPath id="s78u819amz">
            <path d="M6.49 0v1.546h-.352C6.038.874 5.754.532 5.285.521h-2.91v4.277h2.03c.224 0 .355-.033.396-.1.047-.068.097-.208.15-.42l.088-.37h.37v2.285h-.37c-.094-.46-.182-.72-.264-.781-.076-.062-.202-.093-.378-.093H2.374v4.16h3.421c.475 0 .76-.342.853-1.025H7V10H0v-.353l.51-.1c.317-.062.51-.186.58-.37.07-.185.106-.5.106-.942v-6.47c0-.51-.044-.84-.132-.992C.976.616.794.51.519.453L0 .354V0h6.49z"/>
        </clipPath>
        <clipPath id="3umb0vimbA">
            <path d="M6.953 0c.553 0 1.092.118 1.616.353.945.433 1.421 1.138 1.427 2.113 0 .745-.362 1.379-1.084 1.9-.32.224-.668.402-1.047.534.511.279.963.723 1.354 1.331.747 1.179 1.303 2 1.67 2.466.374.466.744.749 1.111.847v.436c-.975.082-1.733-.088-2.276-.51C9.19 9.048 8.648 8.341 8.1 7.35c-.547-.998-.897-1.61-1.047-1.834-.15-.225-.295-.337-.433-.337-.133-.005-.244.09-.335.288-.084.197-.153.32-.208.37-.09.076-.234.117-.433.123a.54.54 0 0 1-.46-.238.812.812 0 0 1-.163-.453c0-.465.437-.698 1.31-.698.18 0 .33.005.451.016.771-.033 1.306-.378 1.607-1.036.132-.301.199-.627.199-.978 0-.844-.337-1.439-1.01-1.784C7.213.61 6.796.518 6.32.518H4.74V8.54c0 .356.033.57.099.641.066.066.196.116.388.148l.614.116v.337H2.33v-.321l.523-.099c.32-.06.509-.172.569-.337.066-.164.1-.48.1-.945V1.57C3.402.851 3.082.481 2.564.46c-.18 0-.418.106-.713.32-.403.296-.752.447-1.048.452-.294 0-.502-.071-.623-.214C.06.871 0 .73 0 .592 0 .202.304.005.912 0h6.041z"/>
        </clipPath>
        <clipPath id="1jiubvcyhB">
            <path d="M3.794 0C4.995 0 5.96.408 6.688 1.225c.728.816 1.095 1.873 1.1 3.171v.015c0 1.2-.275 2.158-.823 2.872-.549.71-1.114 1.164-1.695 1.363 1.74.919 3.3 1.587 4.68 2.005 1.386.423 2.48.635 3.284.635.804 0 1.39-.044 1.759-.132.369-.087.704-.182 1.007-.284v.35c-.203.233-.593.42-1.17.561-.577.141-1.248.214-2.014.219-2.27 0-5.544-1.064-9.823-3.193C2.15 8.632 1.443 8.163.865 7.4.288 6.637 0 5.66 0 4.469c0-1.196.333-2.238 1-3.128C1.671.452 2.603.005 3.794 0zm-.092.51c-.801 0-1.44.35-1.922 1.05-.477.7-.716 1.609-.716 2.727 0 1.41.284 2.44.85 3.09.568.652 1.254.98 2.058.985.94 0 1.63-.36 2.07-1.079.445-.724.67-1.63.674-2.72 0-1.365-.295-2.38-.886-3.047C5.244.851 4.534.516 3.702.51z"/>
        </clipPath>
        <clipPath id="6to6qbup8C">
            <path d="M3.521 0c.872 0 1.55.166 2.037.497.486.332.732.776.738 1.332 0 .555-.274 1.026-.822 1.411a2.701 2.701 0 0 1-.796.39c.766.059 1.344.287 1.735.686.391.399.587.899.587 1.5 0 .604-.338 1.12-1.014 1.545C5.309 7.787 4.328 8 3.043 8H0v-.282l.486-.081c.308-.05.492-.148.554-.296.067-.148.1-.399.1-.753V1.412c0-.408-.042-.675-.126-.8C.931.49.757.408.494.363L0 .283V0h3.521zm-.545 3.845h-.712v3.738c1.335 0 2.249-.161 2.74-.484.493-.323.739-.804.739-1.445 0-1.013-.601-1.598-1.803-1.755a7.408 7.408 0 0 0-.964-.054zM3.085.417h-.821v3.012H3c.984 0 1.618-.307 1.903-.921.09-.198.134-.408.134-.632C5.028.908 4.376.42 3.085.416z"/>
        </clipPath>
    </defs>
    <g clip-path="url(#8z12qkq04a)" transform="translate(-362 -7)">
        <g clip-path="url(#e3xz7dej2b)" transform="translate(428 16)">
            <path d="M0 0h9v17H0V0z"/>
        </g>
        <g clip-path="url(#313zcn036c)" transform="translate(396 16)">
            <path d="M0 0h9v17H0V0z"/>
        </g>
        <g clip-path="url(#e3jux3opsd)" transform="translate(442 48)">
            <path fill="#82572B" d="M0 0h31v12H0V0z"/>
        </g>
        <g clip-path="url(#784da1eqxe)" transform="translate(433 44)">
            <path fill="#282844" d="M0 0h16v16H0V0z"/>
        </g>
        <g clip-path="url(#vac2pc3h6f)" transform="translate(387 44)">
            <path fill="#282844" d="M0 0h16v16H0V0z"/>
        </g>
        <g clip-path="url(#fms2j6kg8g)" transform="translate(422 49)">
            <path fill="#282844" d="M0 0h12v9H0V0z"/>
        </g>
        <g clip-path="url(#daxv9o8noh)" transform="translate(403 49)">
            <path fill="#282844" d="M0 0h10v9H0V0z"/>
        </g>
        <g clip-path="url(#hn4emwtagi)" transform="translate(405 7)">
            <path fill="#82572B" d="M0 0h24v14H0V0z"/>
        </g>
        <g clip-path="url(#p7wjtltg9j)" transform="translate(450 57.95)">
            <path d="M0 0h9v.1H0V0z"/>
        </g>
        <g clip-path="url(#cy7rsmmf8k)" transform="translate(422 57.95)">
            <path d="M0 0h12v.1H0V0z"/>
        </g>
        <g clip-path="url(#ijwye90zal)" transform="translate(413 57.95)">
            <path d="M0 0h8v.1H0V0z"/>
        </g>
        <g clip-path="url(#tevhsriemm)" transform="translate(377 57.95)">
            <path d="M0 0h9v.1H0V0z"/>
        </g>
        <g clip-path="url(#0pj0zfrb0n)" transform="translate(400 57.95)">
            <path d="M0 0h12v.1H0V0z"/>
        </g>
        <g clip-path="url(#llqcajtwno)" transform="translate(404 22)">
            <path d="M0 0h27v21H0V0z"/>
        </g>
        <g clip-path="url(#w6mzpj21mp)" transform="translate(406 48)">
            <path fill="#82572B" d="M0 0h21v8H0V0z"/>
        </g>
        <g clip-path="url(#08w1aihrtq)" transform="translate(405 24)">
            <path fill="#82572B" d="M0 0h24v20H0V0z"/>
        </g>
        <g clip-path="url(#ncd0mpwrpr)" transform="translate(408 45)">
            <path fill="#282844" d="M0 0h18v9H0V0z"/>
        </g>
        <g clip-path="url(#g2mdr6xm7s)" transform="translate(383 21)">
            <path fill="#282844" d="M0 0h26v30H0V0z"/>
        </g>
        <g clip-path="url(#ttg3ovxrkt)" transform="translate(426 21)">
            <path fill="#282844" d="M0 0h26v30H0V0z"/>
        </g>
        <g clip-path="url(#6agqxt8vku)" transform="translate(362 48)">
            <path fill="#82572B" d="M0 0h31v12H0V0z"/>
        </g>
        <g clip-path="url(#3wctxuprov)" transform="translate(374 63)">
            <path d="M0 0h12v10H0V0z"/>
        </g>
        <g clip-path="url(#y3d1fa38iw)" transform="translate(391 63)">
            <path d="M0 0h7v10H0V0z"/>
        </g>
        <g clip-path="url(#3capfv15cx)" transform="translate(403 63)">
            <path d="M0 0h20v14H0V0z"/>
        </g>
        <g clip-path="url(#tt32lntjqy)" transform="translate(420 63)">
            <path d="M0 0h8v10H0V0z"/>
        </g>
        <g clip-path="url(#s78u819amz)" transform="translate(435 63)">
            <path d="M0 0h7v10H0V0z"/>
        </g>
        <g clip-path="url(#3umb0vimbA)" transform="translate(448 63)">
            <path d="M0 0h12v10H0V0z"/>
        </g>
        <g clip-path="url(#1jiubvcyhB)" transform="translate(409 32)">
            <path fill="#282844" d="M0 0h16v12H0V0z"/>
        </g>
        <g clip-path="url(#6to6qbup8C)" transform="translate(418 31)">
            <path fill="#282844" d="M0 0h7v8H0V0z"/>
        </g>
    </g>
</svg>
