<?xml version="1.0" encoding="utf-8"?>
<svg width="55px" height="58px" viewBox="0 0 55 58" version="1.1" xmlns:xlink="http://www.w3.org/1999/xlink" xmlns="http://www.w3.org/2000/svg">
  <g id="stable">
    <path d="M45.5 50C46.3284 50 47 49.3284 47 48.5C47 47.6716 46.3284 47 45.5 47C44.6716 47 44 47.6716 44 48.5C44 49.3284 44.6716 50 45.5 50Z" id="Oval" fill="#DCB388" stroke="none" />
    <path d="M9.5 50C10.3284 50 11 49.3284 11 48.5C11 47.6716 10.3284 47 9.5 47C8.67157 47 8 47.6716 8 48.5C8 49.3284 8.67157 50 9.5 50Z" id="Oval" fill="#DCB388" stroke="none" />
    <path d="M46 29.653C45.9571 29.653 45.9152 29.6484 45.8734 29.6391L43 29L46 33L49 29L46.1266 29.6391C46.0848 29.6484 46.0429 29.653 46 29.653L46 29.653Z" id="Path" fill="#DCB388" stroke="none" />
    <path d="M43 28.1435L46 29L49 28.1435L46 23L43 28.1435Z" id="Path" fill="#DCB388" stroke="none" />
    <path d="M36 40.5C36 41.33 36.67 42 37.5 42L53.5 42C54.33 42 55 41.33 55 40.5L55 39L36 39L36 40.5Z" id="Path" fill="#DCB388" stroke="none" />
    <path d="M45.5 19C40.262 19 36 23.262 36 28.5C36 33.738 40.262 38 45.5 38C50.738 38 55 33.738 55 28.5C55 23.262 50.738 19 45.5 19ZM49.916 28.777L45.916 34.777C45.823 34.917 45.667 35 45.5 35C45.333 35 45.177 34.917 45.084 34.777L41.084 28.777C40.972 28.609 40.972 28.39 41.084 28.222L45.084 22.222C45.27 21.944 45.73 21.944 45.916 22.222L49.916 28.222C50.028 28.391 50.028 28.609 49.916 28.777L49.916 28.777Z" id="Shape" fill="#DCB388" stroke="none" />
    <path d="M9.5 38C14.738 38 19 33.738 19 28.5C19 23.262 14.738 19 9.5 19C4.262 19 0 23.262 0 28.5C0 33.738 4.262 38 9.5 38ZM9.5 29C7.846 29 6.5 27.654 6.5 26C6.5 24.517 7.584 23.29 9 23.051L9 21.5C9 21.224 9.224 21 9.5 21C9.776 21 10 21.224 10 21.5L10 23.051C11.416 23.291 12.5 24.517 12.5 26C12.5 26.276 12.276 26.5 12 26.5C11.724 26.5 11.5 26.276 11.5 26C11.5 24.897 10.603 24 9.5 24C8.397 24 7.5 24.897 7.5 26C7.5 27.103 8.397 28 9.5 28C11.154 28 12.5 29.346 12.5 31C12.5 32.483 11.416 33.71 10 33.949L10 35.5C10 35.776 9.776 36 9.5 36C9.224 36 9 35.776 9 35.5L9 33.949C7.584 33.71 6.5 32.483 6.5 31C6.5 30.724 6.724 30.5 7 30.5C7.276 30.5 7.5 30.724 7.5 31C7.5 32.103 8.397 33 9.5 33C10.603 33 11.5 32.103 11.5 31C11.5 29.897 10.603 29 9.5 29Z" id="Shape" fill="#DCB388" stroke="none" />
    <path d="M19 40.5L19 39L0 39L0 40.5C0 41.33 0.67 42 1.5 42L17.5 42C18.33 42 19 41.33 19 40.5Z" id="Path" fill="#DCB388" stroke="none" />
    <path d="M0.854246 11.854L4.70723 8L17.5002 8C17.6332 8 17.7602 7.947 17.8542 7.854L22.7071 3L26.1401 3L27.4731 7L23.5001 7C23.3671 7 23.2401 7.053 23.1461 7.146L18.2932 12L5.50022 12C5.36723 12 5.24023 12.053 5.14623 12.146L1.14624 16.146C0.951246 16.341 0.951246 16.658 1.14624 16.853C1.24424 16.951 1.37224 17 1.50024 17C1.62824 17 1.75624 16.951 1.85424 16.854L5.70822 13L18.5002 13C18.6332 13 18.7602 12.947 18.8542 12.854L23.7081 8L27.8071 8L30.0261 14.658C30.0941 14.862 30.2851 15 30.5001 15L35.5001 15C35.6331 15 35.7601 14.947 35.8541 14.854L39.5471 11.161L43.2001 13.9C43.286 13.965 43.391 14 43.5 14L48.5 14C48.633 14 48.76 13.947 48.854 13.854L53 9.708L53 12.5C53 12.776 53.224 13 53.5 13C53.776 13 54 12.776 54 12.5L54 8.5C54 8.224 53.776 8 53.5 8L49.5 8C49.224 8 49 8.224 49 8.5C49 8.776 49.224 9 49.5 9L52.293 9L48.293 13L43.667 13L39.8001 10.1C39.6031 9.951 39.3221 9.969 39.1471 10.146L35.2931 14L30.8601 14L28.8601 8L30.3481 8L33.2221 9.916C33.4211 10.049 33.6851 10.022 33.8531 9.854L37.7071 6L47.5 6C47.633 6 47.76 5.947 47.854 5.854L52 1.707L52 4.5C52 4.776 52.224 5 52.5 5C52.776 5 53 4.776 53 4.5L53 0.5C53 0.224 52.776 0 52.5 0L48.5 0C48.224 0 48 0.224 48 0.5C48 0.776 48.224 1 48.5 1L51.293 1L47.293 5L37.5001 5C37.3671 5 37.2401 5.053 37.1461 5.146L33.4361 8.856L30.7771 7.084C30.6951 7.029 30.5991 7 30.5001 7L28.5271 7L26.9741 2.342C26.9061 2.138 26.7151 2 26.5001 2L22.5001 2C22.3671 2 22.2401 2.053 22.1461 2.146L17.2932 7L4.50023 7C4.36723 7 4.24023 7.053 4.14623 7.146L0.146249 11.146C-0.0487498 11.341 -0.0487498 11.658 0.146249 11.853C0.341248 12.048 0.658247 12.049 0.854246 11.854L0.854246 11.854Z" id="Path" fill="#DCB388" stroke="none" />
    <path d="M23 58L33 58L28 49L23 58Z" id="Path" fill="#DCB388" stroke="none" />
    <path d="M12 48C12.0299 48.16 12.0498 48.33 12.0498 48.5C12.0498 48.67 12.0299 48.84 12 49L43 49C42.9701 48.84 42.9502 48.67 42.9502 48.5C42.9502 48.33 42.9701 48.16 43 48L12 48Z" id="Path" fill="#DCB388" stroke="none" />
    <path d="M46 46L46 43L45 43L45 46C45.16 45.9705 45.33 45.9508 45.5 45.9508C45.67 45.9508 45.84 45.9705 46 46Z" id="Path" fill="#DCB388" stroke="none" />
    <path d="M9.5 45.9508C9.67 45.9508 9.84 45.9705 10 46L10 43L9 43L9 46C9.16 45.9705 9.33 45.9508 9.5 45.9508Z" id="Path" fill="#DCB388" stroke="none" />
  </g>
</svg>