<svg width="18" height="20" viewBox="0 0 18 20" xmlns="http://www.w3.org/2000/svg">
    <defs>
        <clipPath id="09jlcqes9a">
            <path d="M1920 0v3189H0V0h1920z"/>
        </clipPath>
        <clipPath id="umbnjybo4b">
            <path d="M4.739 0c.174 0 .316.14.316.313V2.5h7.582V.312c0-.171.143-.312.316-.312h.632c.174 0 .316.14.316.313V2.5h1.896c1.046 0 1.895.84 1.895 1.875v13.75c0 1.035-.849 1.875-1.895 1.875H1.896A1.886 1.886 0 0 1 0 18.125V4.375C0 3.34.85 2.5 1.896 2.5H3.79V.312c0-.171.142-.312.316-.312zm11.69 7.5H1.264v10.625a.63.63 0 0 0 .632.625h13.9a.63.63 0 0 0 .633-.625V7.5zM8.214 10a.63.63 0 0 1 .632.625v3.75a.63.63 0 0 1-.632.625h-3.79a.63.63 0 0 1-.633-.625v-3.75A.63.63 0 0 1 4.423 10zm-.632 1.25H5.055v2.5h2.527v-2.5zm8.215-7.5H1.896a.63.63 0 0 0-.632.625V6.25h15.165V4.375a.63.63 0 0 0-.632-.625z"/>
        </clipPath>
    </defs>
    <g clip-path="url(#09jlcqes9a)" transform="translate(-601 -1404)">
        <g clip-path="url(#umbnjybo4b)" transform="translate(601 1404)">
            <path fill="#DBB288" d="M0 0h17.692v20H0V0z"/>
        </g>
    </g>
</svg>
