<?xml version="1.0" encoding="utf-8"?>
<svg width="44px" height="36px" viewBox="0 0 44 36" version="1.1" xmlns:xlink="http://www.w3.org/1999/xlink" xmlns="http://www.w3.org/2000/svg">
  <g id="Combined-Shape">
    <path d="M28.0946 3.88238L28.0946 18.1176C28.0946 19.0914 28.0035 19.7816 27.8215 20.1884C27.6547 20.595 27.154 20.8661 26.3197 21.0018L25 21.2237L25 22L33.26 22C36.7488 22 39.4111 21.4146 41.2466 20.2438C43.0821 19.0729 44 17.6554 44 15.9917C44 14.3402 43.469 12.966 42.407 11.869C41.3453 10.772 39.7753 10.1435 37.6969 9.98339C38.4707 9.749 39.1913 9.3916 39.8585 8.91098C41.3453 7.85109 42.0885 6.55703 42.0885 5.0286C42.0734 3.50038 41.4058 2.28013 40.0862 1.36808C38.7665 0.456027 36.9234 0 34.5569 0L25 0L25 0.77652L26.3426 0.998382C27.0556 1.12162 27.5258 1.34963 27.7534 1.68242C27.9808 2.02752 28.0946 2.76098 28.0946 3.88238ZM31.1438 1.14622L33.3735 1.14622C36.8777 1.15874 38.6451 2.49585 38.6754 5.15798C38.6754 5.77436 38.554 6.35362 38.3112 6.89598C37.5377 8.58433 35.816 9.42873 33.1461 9.42873L31.1438 9.42873L31.1438 1.14622ZM2.37951 23.3495C3.96577 25.4477 5.91609 26.7376 8.23048 27.2188C19.9978 33.073 29.0018 36 35.243 36C37.3493 35.9867 39.1956 35.7863 40.7821 35.3985C42.3683 35.0109 43.441 34.4964 44 33.8549L44 32.8925C43.1678 33.1733 42.2448 33.4339 41.2305 33.6745C40.2164 33.9151 38.6042 34.0354 36.3936 34.0354C34.1833 34.0354 31.1732 33.4539 27.3636 32.2912C23.5668 31.1416 19.2761 29.3037 14.4912 26.7777Q16.89 25.9558 19.1526 23.0286Q21.4149 20.0814 21.4149 15.1295L21.4149 15.0893C21.4019 11.5208 20.3943 8.61359 18.3918 6.36815C16.3896 4.12272 13.7371 3 10.4346 3C7.15798 3.01334 4.59633 4.24302 2.75006 6.68903C0.916763 9.13481 0 12.0018 0 15.2899C0 18.5644 0.793246 21.251 2.37951 23.3495ZM5.26606 23.2892C3.70575 21.4983 2.92572 18.6647 2.92572 14.7887C2.92572 11.7145 3.58224 9.21509 4.89551 7.29029C6.22175 5.36574 7.97695 4.40334 10.1613 4.40334L10.181 4.40334C12.4695 4.41668 14.4198 5.33906 16.032 7.17023C17.6572 9.00117 18.4699 11.7947 18.4699 15.5505C18.4569 18.5444 17.8393 21.0371 16.6171 23.0286C15.4079 25.0067 13.5095 25.9958 10.9221 25.9958C8.71157 25.9825 6.82636 25.0804 5.26606 23.2892ZM31.1438 10.5749L33.0777 10.5749C34.0943 10.5749 34.9665 10.6242 35.6946 10.7228C38.956 11.1542 40.5869 12.7626 40.5869 15.548C40.5869 17.3103 39.9194 18.6354 38.5843 19.5228C37.2495 20.4101 34.7691 20.8538 31.1438 20.8538L31.1438 10.5749Z" id="Combined-Shape" fill="#282844" fill-rule="evenodd" stroke="none" />
  </g>
</svg>