<?xml version="1.0" encoding="utf-8"?><svg xmlns="http://www.w3.org/2000/svg" xmlns:xlink="http://www.w3.org/1999/xlink"><symbol viewBox="0 0 22 22" id="all" xmlns="http://www.w3.org/2000/svg"><path d="M9.533 0h-8.8A.734.734 0 0 0 0 .733v8.8c0 .405.329.734.733.734h8.8a.734.734 0 0 0 .734-.734v-8.8A.734.734 0 0 0 9.533 0zm11.734 0h-8.8a.734.734 0 0 0-.734.733v8.8c0 .405.329.734.734.734h8.8A.734.734 0 0 0 22 9.533v-8.8A.734.734 0 0 0 21.267 0zM8.8 8.8H1.467V1.467H8.8V8.8zm11.733 0H13.2V1.467h7.333V8.8zm-11 2.933h-8.8a.734.734 0 0 0-.733.734v8.8c0 .405.329.733.733.733h8.8a.734.734 0 0 0 .734-.733v-8.8a.734.734 0 0 0-.734-.734zm11.734 0h-8.8a.734.734 0 0 0-.734.734v8.8c0 .405.329.733.734.733h8.8a.734.734 0 0 0 .733-.733v-8.8a.734.734 0 0 0-.733-.734zM8.8 20.533H1.467V13.2H8.8v7.333zm11.733 0H13.2V13.2h7.333v7.333z" fill-rule="evenodd"/></symbol><symbol viewBox="0 0 12 6.789673" id="arrow" xmlns="http://www.w3.org/2000/svg"><path d="M10.847.089a.3.3 0 0 1 .426 0l.636.636a.288.288 0 0 1 0 .42L6.396 6.658a.45.45 0 0 1-.318.132h-.156a.45.45 0 0 1-.318-.132L.091 1.145a.288.288 0 0 1 0-.42L.727.089a.3.3 0 0 1 .426 0L6 4.936 10.847.089z" fill-rule="evenodd"/></symbol><symbol viewBox="0 0 18.818176 36" id="arrow-2" xmlns="http://www.w3.org/2000/svg"><path d="M16.697 35.628a1.2 1.2 0 0 0 .879.372 1.2 1.2 0 0 0 .879-.372 1.296 1.296 0 0 0 0-1.8L3 18 18.455 2.172a1.296 1.296 0 0 0 0-1.8 1.223 1.223 0 0 0-1.758 0L.364 17.1a1.295 1.295 0 0 0 0 1.8l16.333 16.728z" fill-rule="evenodd"/></symbol><symbol viewBox="0 0 51 68" id="bal-btc" xmlns="http://www.w3.org/2000/svg"><path d="M51 0H.12v1.147L0 60.139c0 .529.21 1.036.584 1.41l5.877 5.867a1.997 1.997 0 0 0 2.821 0l4.466-4.459 4.465 4.46a1.996 1.996 0 0 0 2.821 0l4.466-4.46 4.466 4.46a1.997 1.997 0 0 0 2.82 0l4.466-4.46 4.466 4.46c.39.388.9.583 1.41.583a1.99 1.99 0 0 0 1.411-.584l5.877-5.868A1.99 1.99 0 0 0 51 60.139V0zM33.563 23.391a6.397 6.397 0 0 0-4.998-10.347h-.913V10h-2.434v3.043h-2.435V10h-2.435v3.043h-4.87v3.653h3.653v14.608h-3.653v3.652h4.87V38h2.435v-3.044h2.434V38h2.435v-3.044h2.13c6.149 0 8.754-7.913 3.78-11.565zm-7.888-6.713a270.8 270.8 0 0 1-2.892.018v5.478h5.782a2.74 2.74 0 0 0 1.936-4.675c-.827-.861-1.455-.855-4.826-.821zm4.108 14.626h-7v-5.478h7a2.74 2.74 0 0 1 0 5.478zM14.967 51h21.066C37.12 51 38 50.105 38 49s-.88-2-1.967-2H14.967C13.88 47 13 47.895 13 49s.88 2 1.967 2z" fill-rule="evenodd"/></symbol><symbol viewBox="0 0 51 68" id="bal-eth" xmlns="http://www.w3.org/2000/svg"><path d="M.12 0H51v60.14c0 .528-.21 1.035-.584 1.408l-5.877 5.868c-.39.39-.9.584-1.41.584a1.99 1.99 0 0 1-1.411-.584l-4.466-4.459-4.465 4.46a1.996 1.996 0 0 1-2.821 0l-4.466-4.46-4.466 4.46a1.996 1.996 0 0 1-2.82 0l-4.466-4.46-4.466 4.46a1.997 1.997 0 0 1-2.821 0l-5.877-5.87A1.992 1.992 0 0 1 0 60.14L.12 1.148V0zm25.866 10l-9.143 15.292 9.143 5.416 9.143-5.416L25.986 10zm4.476 19.826c2.32-1.369 4.677-2.758 4.697-2.757 0 0-9.171 12.931-9.177 12.931-.007 0-9.147-12.905-9.169-12.938.04-.005 7.51 4.414 8.935 5.257l.233.138c.058-.022 2.253-1.317 4.481-2.631zM14.967 51h21.066C37.12 51 38 50.105 38 49s-.88-2-1.967-2H14.967C13.88 47 13 47.895 13 49s.88 2 1.967 2z" fill-rule="evenodd"/></symbol><symbol viewBox="0 0 51 68" id="bal-usd" xmlns="http://www.w3.org/2000/svg"><path d="M51 0H.12v1.147L0 60.139c0 .529.21 1.036.584 1.41l5.877 5.867a1.997 1.997 0 0 0 2.821 0l4.466-4.459 4.465 4.46a1.996 1.996 0 0 0 2.821 0l4.466-4.46 4.466 4.46a1.997 1.997 0 0 0 2.82 0l4.466-4.46 4.466 4.46c.39.388.9.583 1.41.583a1.99 1.99 0 0 0 1.411-.584l5.877-5.868A1.99 1.99 0 0 0 51 60.139V0zM23.555 14.354V12.02c0-1.116.87-2.02 1.945-2.02 1.074 0 1.945.904 1.945 2.02v2.307h2.221c1.074 0 1.945.904 1.945 2.02 0 1.115-.87 2.02-1.945 2.02h-5.555c-1.225 0-2.221 1.034-2.221 2.306s.996 2.307 2.221 2.307h2.778c3.37 0 6.111 2.847 6.111 6.347 0 3.305-2.445 6.026-5.555 6.319v2.334c0 1.116-.871 2.02-1.945 2.02s-1.945-.904-1.945-2.02v-2.307h-2.222c-1.074 0-1.944-.904-1.944-2.02 0-1.115.87-2.02 1.944-2.02h5.556c1.225 0 2.221-1.034 2.221-2.306s-.996-2.307-2.221-2.307H24.11c-3.37 0-6.111-2.848-6.111-6.347 0-3.305 2.445-6.026 5.555-6.319zM36.033 51H14.967C13.88 51 13 50.105 13 49s.88-2 1.967-2h21.066C37.12 47 38 47.895 38 49s-.88 2-1.967 2z"/></symbol><symbol viewBox="0 0 788 788" id="bch" xmlns="http://www.w3.org/2000/svg"><title>12-bitcoin-cash-square-crop</title><circle class="agcls-1" cx="394" cy="394" r="394"/><path class="agcls-2" d="M551.124 407.914l-.187-.346-.031-.058c-.113-.348-.2-.713-.326-1.089l-.016-.03-.016-.029-.016-.029-.016-.029-.016-.029-.016-.029-.032-.058a68.435 68.435 0 0 0-22.372-33.478l-.015-.029c-.315-.24-.646-.51-.962-.747l-.435-.324-.315-.239-.135-.114-.3-.211-.135-.113-.3-.211-.135-.113-.315-.239-.165-.1-.315-.239-.165-.1-.34-.224-.165-.1-.2-.3-.18-.127-.34-.224-.179-.127-.341-.225-.179-.126-.34-.225-.18-.127-.36-.255-.179-.127-.388-.238-.18-.126-.387-.239-.18-.126-.388-.239-.179-.126-.388-.239-.209-.11-.388-.238-.208-.111-.418-.222-.208-.11-.433-.251-.208-.11-.433-.25-.209-.111-.433-.25-.224-.139-.433-.251-.225-.139-.461-.236-.224-.139-.462-.236-.312-.17-.016-.029c-.224-.139-.461-.236-.686-.376a95.508 95.508 0 0 0-30.588-9.665 85.552 85.552 0 0 0 8.195-10.293l.393-.584.029-.016.182-.284.238-.388.127-.18.238-.387.126-.18.239-.388.126-.179.239-.388.126-.18.238-.388.126-.179.209-.374.127-.179.208-.374.1-.165.208-.373.1-.165.208-.373.1-.165.18-.358.1-.165.179-.357.1-.165.179-.357.1-.165.195-.329.1-.165.2-.328.1-.165.171-.312.1-.165.17-.313.069-.148.171-.313.068-.149.171-.312.068-.149.171-.312.069-.149.137-.3.069-.149.138-.3.069-.149.138-.3.069-.148.151-.341.207-.445c.151-.341.273-.668.425-1.01l.029-.016a60.785 60.785 0 0 0 3.088-35.684l-.016-.029-.032-.058-.016-.029-.015-.029-.016-.029-.016-.029-.017-.029-.015-.028a11.288 11.288 0 0 0-.235-.992v-.073l-.016-.029-.016-.029-.016-.028.016.028-.14-.259c-.1-.466-.2-.936-.35-1.411-.1-.466-.248-.946-.379-1.4l-.171-.317-.031-.058c-.1-.319-.195-.64-.293-.959l-.017-.029-.016-.029-.016-.029-.015-.029-.016-.028-.017-.029-.015-.029a60.8 60.8 0 0 0-19.9-29.784l-.017-.03c-.27-.227-.57-.438-.841-.663l-.374-.283-.3-.22-.135-.113-.256-.2-.135-.114-.255-.2-.135-.113-.284-.182-.136-.113-.3-.211-.135-.113-.3-.211-.136-.113-.3-.211-.165-.1-.3-.211-.165-.1-.3-.211-.165-.1-.328-.195-.165-.1-.328-.195-.165-.1-.329-.195-.165-.1-.328-.2-.165-.1-.34-.225-.165-.1-.345-.224-.165-.1-.373-.209-.165-.1-.373-.209-.18-.127-.373-.208-.179-.127-.373-.208-.18-.127-.387-.238-.209-.111-.388-.238-.208-.11-.418-.223-.208-.11-.418-.222-.3-.138-.016-.029-.626-.332c-18.294-9.508-41.536-12.371-64.92-6.372l-6.083 1.562-15.415-59.862-35.652 9.14 15.3 59.681-28.521 7.316-15.348-59.486L280.027 210l15.335 59.676-73.529 18.924 9.783 38.025 29.627-7.609a18.335 18.335 0 0 1 22.332 13.178l.008.034 41.128 160.01a12.249 12.249 0 0 1-8.8 14.9l-25.96 6.678 1.525 45.223 73.435-18.874 15.537 59.568 35.636-9.169-15.35-59.706 28.521-7.316 15.35 59.7 35.636-9.169-15.4-59.938a6704.9 6704.9 0 0 1 14.827-3.85c26.353-6.779 47.663-22.232 60.558-41.494l.436-.643.029-.016.211-.3.28-.448.139-.225.28-.448.14-.225.25-.433.139-.224.25-.433.111-.209.25-.433.111-.208.25-.433.11-.209.222-.417.111-.209.222-.417.11-.209.239-.388.11-.208.238-.388.111-.208.208-.374.111-.208.208-.373.111-.208.208-.373.085-.193.209-.373.085-.193.179-.357.1-.165.18-.357.1-.165.179-.358.1-.165.179-.357.1-.165.18-.357.1-.165.18-.358.1-.165.151-.34.1-.165.151-.34.069-.149.165-.386.221-.491c.165-.386.344-.744.479-1.114l.014-.045a68.5 68.5 0 0 0 3.482-40.138l-.016-.029-.016-.029-.016-.029-.016-.029-.016-.029-.016-.029-.016-.029-.016-.029-.255-1.092v-.073l-.015-.029-.016-.029-.017-.029-.016-.029-.015-.029-.016-.029-.016-.029-.016-.029-.016-.028-.016-.029-.016-.029-.015-.029-.016-.029-.063-.115c-.132-.523-.237-1.062-.4-1.572-.025-.318-.101-.874-.133-1.489zM341.641 300.876c6.083-1.561 31.233-7.878 39.526-10.037 13.185-3.375 26.172-2.065 36.323 2.82l.341.151.148.069.209.11.1.056.208.11.1.056.208.11.1.056.209.11.1.055.209.111.1.055.209.111.1.055.208.111.1.055.208.111.1.055.208.111.1.055.18.127.1.055.179.127.1.055.179.127.1.055.165.1.1.055.165.1.1.055.165.1.1.055.165.1.1.055.165.1.076.072.165.1.06.041.165.1.059.042.165.1.06.041.165.1.059.042.136.113.059.042.165.1.225.14c.165.1.315.241.48.34a30.749 30.749 0 0 1 10.9 15.612l.046.085c.048.16.113.348.161.51l.016.03.094.17c.066.262.146.48.214.741a4.436 4.436 0 0 1 .142.817l.093.17.016.029a2.557 2.557 0 0 0 .133.523l.046.085a30.857 30.857 0 0 1-2.029 18.931l-.234.535-.124.255-.1.165-.027.089-.069.149-.027.089-.1.165-.027.086-.1.165-.027.089-.1.165-.027.085-.1.165-.027.089-.1.165-.028.09-.1.165-.056.1-.1.165-.056.1-.1.165-.055.1-.1.165-.055.1-.127.179-.055.1-.127.18-.055.1-.127.179-.055.1-.127.179-.055.1-.127.18-.055.1-.127.18-.055.1-.127.179-.055.1-.127.179-.055.1-.156.195-.055.1-.156.195-.055.1-.156.195-.055.1-.156.195-.113.135-.211.3c-6.557 9.188-17.3 16.609-30.485 19.983-8.309 2.127-33.393 8.706-39.471 10.268zM481 423.55l.094.17.016.029c.035.2.085.364.12.568l.016.03.016.029.017.029.016.029a31.694 31.694 0 0 1-2.867 20.675l-.319.581-.153.269-.111.208-.055.1-.1.165-.055.1-.1.165-.055.1-.127.179-.055.1-.127.179-.055.1-.127.18-.055.1-.127.179-.055.1-.127.179-.055.1-.127.18-.055.1-.127.18-.055.1-.127.179-.055.1-.127.179-.055.1-.156.195-.055.1-.156.195-.055.1-.14.225-.055.1-.141.224-.055.1-.139.225-.086.12-.139.224-.085.12-.17.239-.085.12-.17.239-.086.12-.17.239-.085.12-.17.239-.085.12-.17.239-.142.152-.269.33c-7.964 10.169-20.807 18.533-36.409 22.537-9.836 2.54-39.562 10.314-46.794 12.16l-20.237-78.739c7.217-1.872 37.025-9.357 46.861-11.9 15.6-4 30.914-2.869 42.754 2.186l.386.165.193.085.283.108.132.039.256.124.132.039.256.125.132.039.255.124.1.055.255.124.1.056.255.124.1.055.255.124.1.056.209.11.1.056.209.11.1.056.208.11.1.055.208.111.1.055.208.111.1.055.209.111.1.055.209.111.1.055.208.111.1.055.208.11.1.056.179.126.1.056.18.127.1.055.18.127.1.055.179.127.1.055.18.127.1.055.165.1.1.055.18.127.239.17c.179.127.388.238.569.364a31.789 31.789 0 0 1 12.547 16.799l.062.115c.064.188.113.349.177.537l.016.028.093.171c.067.262.133.523.216.815.147.063.17.385.125.782z"/></symbol><symbol id="bch-logo" viewBox="0 0 55.2 70.3" xmlns="http://www.w3.org/2000/svg"><style>.ahst0{fill:#363635}</style><title>Artboard 51</title><path class="ahst0" d="M54.9 30.5c1.7-7.3-3.6-11.7-11.1-14.9L47 5.8l-5.9-2-3.1 9.6c-1.6-.5-3.2-1-4.7-1.6l3.2-9.5-6-2-3.2 9.8c-1.3-.4-2.6-.8-3.8-1.3l-8.2-2.7-2.1 6.3s4.4 1.4 4.3 1.4c2.4.8 2.7 2.5 2.6 3.7l-3.7 11.1c.2.1.4.1.6.2l-.7-.2L11 44.4c-.5 1.1-1.8 1.6-2.9 1.2.1.1-4.3-1.4-4.3-1.4L.2 50.9 8 53.4l4.3 1.4L9 64.7l6 2 3.2-9.8c1.6.5 3.2 1.1 4.7 1.6l-3.2 9.7 6 2 3.3-9.9c10.2 2.9 18 2.7 22-6.4 3.2-7.4.8-11.9-4.5-15.2 3.9-.5 7.1-2.9 8.4-8.2zM39.6 48.9c-2.4 7.4-14.8 2.3-18.9 1L25 36.7c4.1 1.4 17.1 4.5 14.6 12.2zm3.3-19.4c-2.2 6.7-12.5 2.4-15.9 1.3l4-11.9c3.4 1.1 14.3 3.6 11.9 10.6z"/></symbol><symbol viewBox="0 0 2500.01 2500" id="bnb-icon" xmlns="http://www.w3.org/2000/svg"><defs><style>.aicls-1{fill:#f3ba2f}</style></defs><title>bi</title><g id="aiLayer_2" data-name="Layer 2"><g id="aiLayer_1-2" data-name="Layer 1"><path class="aicls-1" d="M764.48 1050.52L1250 565l485.75 485.73 282.5-282.5L1250 0 482 768l282.49 282.5M0 1250l282.51-282.55L565 1249.94l-282.51 282.51zm764.48 199.51L1250 1935l485.74-485.72 282.65 282.35-.14.15L1250 2500l-768-768-.4-.4 282.91-282.12M1935 1250.12l282.51-282.51L2500 1250.1l-282.5 282.51z"/><path class="aicls-1" d="M1536.52 1249.85h.12L1250 963.19 1038.13 1175l-24.34 24.35-50.2 50.21-.4.39.4.41L1250 1536.81l286.66-286.66.14-.16-.26-.14"/></g></g></symbol><symbol viewBox="0 0 258 258" id="btc" xmlns="http://www.w3.org/2000/svg"><path d="M118.667 133.206l23.426 6.277c10.933 2.929 15.486 11.96 12.437 22.303-2.023 7.548-7.22 13.409-14.165 14.338-2.621.413-6.075-.234-8.938-1l-22.385-5.999 9.625-35.92zm41.846-39.562c3.987 3.858 4.935 9.692 3.331 15.678-2.51 9.37-9.72 14.413-19.09 11.903l-21.345-5.72 8.44-31.495 18.74 5.022c4.165 1.116 7.67 2.613 9.924 4.612zm-31.816 99.998l-4.882 18.22-12.234-3.278 4.882-18.22-12.754-3.418-4.882 18.221-12.234-3.278 4.883-18.221-24.468-6.556 4.463-16.658 7.549 2.023c3.904 1.046 7.604-1.31 8.58-4.955l19.738-73.662c1.047-3.905-1.31-7.604-4.953-8.58-5.033-1.35-7.55-2.023-7.55-2.023s1.489-5.553 4.464-16.66l24.468 6.557 4.882-18.22 12.234 3.277L136 66.431l12.754 3.418 4.882-18.22 12.234 3.278-4.952 18.48c6.177 1.935 10.913 4.04 15.301 7.448 9.817 7.094 14.645 19.268 11.019 32.803-3.07 11.454-10.786 19.429-21.742 21.793 12.349 8.052 15.198 21.37 11.78 34.124-4.654 16.328-18.795 25.372-32.925 26.05-5.624.166-10.449-.569-15.655-1.963zM5.362 95.87c-18.274 68.196 22.312 138.494 90.51 156.768 68.195 18.273 138.494-22.314 156.767-90.51 18.273-68.197-22.314-138.494-90.51-156.768C93.932-12.912 23.635 27.675 5.362 95.871z" fill-rule="evenodd"/></symbol><symbol viewBox="0 0 16.831055 22" id="btc-icon" xmlns="http://www.w3.org/2000/svg"><path d="M16.805 9.096c.247-2.195-1.305-3.6-3.683-4.501l.877-3.106-1.89-.533-.883 3.092c-.495-.143-.993-.308-1.506-.44l.875-3.075L8.706 0 7.83 3.106a539.306 539.306 0 0 1-3.816-1.072L3.44 4.056s1.404.364 1.376.384c.771.215.892.734.856 1.135L3.274 14.09c-.101.228-.353.57-.885.428.018.031-1.373-.389-1.373-.389L0 16.284s3.371.958 3.813 1.085l-.887 3.142 1.889.532.898-3.16c.513.157 1.016.305 1.51.441l-.894 3.143L8.22 22l.884-3.138c2.887.86 5.603.305 6.658-2.348.624-1.607-.28-3.749-1.536-4.663 1.245-.249 2.28-1.069 2.58-2.755zm-4.542 5.98c-1.08 2.606-4.61.945-5.89.59l1.142-4.176c1.283.357 5.436 1.135 4.748 3.585zm.845-6.101c-.905 2.35-3.922.925-4.986.623l1.032-3.792c1.064.312 4.408.77 3.954 3.169z"/></symbol><symbol id="btc-logo" viewBox="0 0 49.14 68.03" xmlns="http://www.w3.org/2000/svg"><defs><style>.alcls-1{fill:#363635}</style></defs><path class="alcls-1" d="M45.49 21c-.7-7.42-7.1-9.93-15.19-10.66V.04h-6.25v10h-5V0h-6.27v10.3H.14L.1 17s4.63-.08 4.55 0c2.54 0 3.37 1.48 3.6 2.75v11.74a5.92 5.92 0 0 1 .67 0h-.69L8.18 48a2.21 2.21 0 0 1-2.36 2c.08.07-4.56 0-4.56 0L0 57.5h12.64v10.42h6.27v-10.3c1.72 0 3.38.06 5 .06v10.26h6.27v-10.4C40.72 57.06 48.1 54.42 49 44.53c.76-8-3-11.54-9-13 3.64-1.85 5.92-5.1 5.4-10.54zm-8.83 22.25c0 7.79-13.34 6.87-17.59 6.86v-13.8c4.25 0 17.58-1.17 17.56 6.94zm-2.87-19.47c0 7.08-11.13 6.22-14.67 6.22V17.48c3.57.01 14.69-1.09 14.67 6.3z"/></symbol><symbol viewBox="0 0 23.928467 24" id="busd-icon" xmlns="http://www.w3.org/2000/svg"><path d="M20.964 9l2.965 3.036L11.963 24 9 21.036 20.964 9zm-4.5-4.5l2.965 3.036L7.464 19.5 4.5 16.536 16.464 4.5zM2.964 9l2.965 3.036L2.964 15 0 12.036 2.964 9zm9-9l2.964 3.036L7.464 10.5 4.5 7.536 11.964 0z"/></symbol><symbol viewBox="0 0 24 24" id="cab-bal-minus" xmlns="http://www.w3.org/2000/svg"><path d="M16.625 12c0 .518-.42.938-.938.938H8.313a.937.937 0 1 1 0-1.876h7.376c.517 0 .937.42.937.938zM24 6.955v10.09c0 3.205-2.174 4.833-2.315 5.033A6.52 6.52 0 0 1 17.045 24H6.955a6.52 6.52 0 0 1-4.64-1.922C2.175 21.88 0 20.25 0 17.045V6.955C0 3.75 2.174 2.122 2.315 1.922A6.52 6.52 0 0 1 6.955 0h10.09a6.52 6.52 0 0 1 4.64 1.922C21.826 2.12 24 3.75 24 6.955zm-1.875 0c0-2.349-1.623-3.509-1.765-3.707a4.656 4.656 0 0 0-3.315-1.373H6.955c-1.252 0-2.43.488-3.315 1.373-.147.205-1.765 1.346-1.765 3.707v10.09c0 2.349 1.623 3.508 1.765 3.707a4.657 4.657 0 0 0 3.315 1.373h10.09c1.252 0 2.43-.488 3.315-1.373.147-.205 1.765-1.346 1.765-3.707V6.955z"/></symbol><symbol viewBox="0 0 24 24" id="cab-bal-plus" xmlns="http://www.w3.org/2000/svg"><path d="M16.625 12c0 .518-.42.938-.938.938h-2.75v2.75a.937.937 0 1 1-1.874 0v-2.75h-2.75a.937.937 0 1 1 0-1.876h2.75v-2.75a.937.937 0 1 1 1.874 0v2.75h2.75c.518 0 .938.42.938.938zM24 6.955v10.09a6.52 6.52 0 0 1-1.922 4.64C21.88 21.826 20.25 24 17.045 24H6.955c-3.205 0-4.833-2.174-5.033-2.314A6.52 6.52 0 0 1 0 17.046V6.954a6.52 6.52 0 0 1 1.922-4.64C2.12 2.175 3.75 0 6.955 0h10.09c3.205 0 4.833 2.174 5.033 2.315A6.52 6.52 0 0 1 24 6.955zm-1.875 0c0-1.252-.488-2.43-1.373-3.315-.205-.147-1.346-1.765-3.707-1.765H6.955c-2.349 0-3.509 1.623-3.707 1.765a4.657 4.657 0 0 0-1.373 3.315v10.09c0 1.252.488 2.43 1.373 3.315.205.147 1.346 1.765 3.707 1.765h10.09c2.349 0 3.509-1.623 3.707-1.765a4.657 4.657 0 0 0 1.373-3.315V6.955z"/></symbol><symbol viewBox="0 0 18 18" id="cancel" xmlns="http://www.w3.org/2000/svg"><path d="M14.245 0H3.755C1.685 0 0 1.692 0 3.772v10.456C0 16.308 1.684 18 3.755 18h10.49C16.315 18 18 16.308 18 14.228V3.772C18 1.692 16.316 0 14.245 0zm2.38 14.228a2.388 2.388 0 0 1-2.38 2.39H3.755a2.388 2.388 0 0 1-2.38-2.39V3.772a2.388 2.388 0 0 1 2.38-2.39h10.49a2.388 2.388 0 0 1 2.38 2.39v10.456z"/><path d="M12.234 5.588a.569.569 0 0 0-.805-.003L8.9 8.103 6.373 5.567a.569.569 0 0 0-.806 0 .572.572 0 0 0 0 .808l2.526 2.533-2.506 2.496a.572.572 0 0 0 .402.977c.145 0 .29-.055.401-.166L8.9 9.716l2.51 2.517a.567.567 0 0 0 .805 0 .572.572 0 0 0 0-.808L9.707 8.91l2.525-2.515a.572.572 0 0 0 .002-.808z"/></symbol><symbol viewBox="0 0 417.065 417.065" id="check" xmlns="http://www.w3.org/2000/svg"><path d="M401.56 47.087c-17.452-14.176-42.561-12.128-56.095 4.536L167.042 271.598 73.913 150.58c-13.892-18.037-39.781-21.411-57.819-7.535-18.054 13.884-21.427 39.781-7.535 57.843L133.56 363.321c13.892 18.037 39.789 21.419 57.835 7.535 5.145-3.959 8.95-8.958 11.648-14.42l205.645-253.514c13.527-16.688 10.332-41.675-7.128-55.835z"/></symbol><symbol viewBox="0 0 18 18" id="close" xmlns="http://www.w3.org/2000/svg"><path d="M18 1.813L16.187 0 9 7.187 1.813 0 0 1.813 7.187 9 0 16.187 1.813 18 9 10.813 16.187 18 18 16.187 10.813 9 18 1.813z" fill-rule="evenodd"/></symbol><symbol viewBox="0 0 20.307617 24" id="copy" xmlns="http://www.w3.org/2000/svg"><path d="M15.089 5h-4.935V.016L15.089 5zM8.123 7V0H3.046C1.364 0 0 1.343 0 3v16h15.23V7H8.124zm9.139.01v14.028H5.077V24h15.23V10l-3.045-2.99z"/></symbol><symbol viewBox="0 0 23 25" id="dai-erc20" xmlns="http://www.w3.org/2000/svg"><g fill-rule="evenodd"><path fill-rule="nonzero" d="M8.815.25a7.651 7.651 0 0 1 6.711 3.988h1.957c.545 0 .997.452.997.997 0 .545-.452.997-.997.997h-1.206a7.64 7.64 0 0 1 0 3.323h1.206c.545 0 .997.453.997.998 0 .545-.452.997-.997.997h-1.957a7.651 7.651 0 0 1-6.711 3.988H3.497c-.545 0-.997-.452-.997-.997v-2.992H1.477c-.545 0-.997-.451-.997-.996 0-.545.452-.997.997-.997L2.5 9.555V6.232H1.477c-.545 0-.997-.452-.997-.997 0-.545.452-.997.997-.997H2.5V1.247c0-.545.452-.997.997-.997h5.318zm4.301 11.3l-8.622-.001v1.995h4.32c1.72 0 3.264-.776 4.302-1.994zm1.099-5.317l-9.721-.001v3.323h9.72a5.616 5.616 0 0 0 0-3.322zm-5.4-3.989h-4.32l-.001 1.994h8.622a5.642 5.642 0 0 0-4.301-1.994z"/><path d="M23 20l-4 5-4-5 4 2.096L23 20zm-4.062-8l3.937 6.636L18.938 21 15 18.636 18.938 12z"/></g></symbol><symbol viewBox="0 0 11.773926 10" id="dai-icon" xmlns="http://www.w3.org/2000/svg"><path d="M5.452 10H1.974a.657.657 0 0 1-.653-.652V.652c0-.356.296-.652.653-.652h3.478c2.756 0 5 2.243 5 5s-2.244 5-5 5zM2.626 8.696h2.826A3.704 3.704 0 0 0 9.147 5a3.704 3.704 0 0 0-3.695-3.696H2.626v7.392z"/><path d="M11.122 3.913H.652A.657.657 0 0 1 0 3.261c0-.357.296-.652.652-.652h10.47c.356 0 .652.295.652.652a.657.657 0 0 1-.652.652zm0 3.478H.652A.657.657 0 0 1 0 6.74c0-.356.296-.652.652-.652h10.47c.356 0 .652.296.652.652a.657.657 0 0 1-.652.652z" fill-rule="evenodd"/></symbol><symbol viewBox="0 0 26 25" id="dai-trc20" xmlns="http://www.w3.org/2000/svg"><path d="M8.815.25a7.651 7.651 0 0 1 6.711 3.988h1.957c.545 0 .997.452.997.997 0 .545-.452.997-.997.997h-1.206a7.64 7.64 0 0 1 0 3.323h1.206c.545 0 .997.453.997.998 0 .545-.452.997-.997.997h-1.957a7.651 7.651 0 0 1-6.711 3.988H3.497c-.545 0-.997-.452-.997-.997v-2.992H1.477c-.545 0-.997-.451-.997-.996 0-.545.452-.997.997-.997L2.5 9.555V6.232H1.477c-.545 0-.997-.452-.997-.997 0-.545.452-.997.997-.997H2.5V1.247c0-.545.452-.997.997-.997h5.318zm4.301 11.3l-8.622-.001v1.995h4.32c1.72 0 3.264-.776 4.302-1.994zm1.099-5.317l-9.721-.001v3.323h9.72a5.616 5.616 0 0 0 0-3.322zm-5.4-3.989h-4.32l-.001 1.994h8.622a5.642 5.642 0 0 0-4.301-1.994z"/><path d="M23.529 13.806L14 12l5.015 13L26 16.229l-2.471-2.423zM23.537 15L25 16.315 21 17l2.537-2zm-3.253 2L16 13l7 1.45L20.284 17zM20 16.908L19.22 23 15 13l5 3.908zm.64.87L25 17l-5 6 .64-5.222z"/></symbol><symbol viewBox="0 0 256 256" id="dash" xmlns="http://www.w3.org/2000/svg"><path d="M128 256c70.692 0 128-57.308 128-128C256 57.308 198.692 0 128 0 57.308 0 0 57.308 0 128c0 70.692 57.308 128 128 128zM71.519 103.269c.12-.432.217-.86.355-1.273 2.469-7.398 4.942-14.794 7.416-22.19.43-1.288.433-1.291 1.816-1.291l73.246-.001c13.361 0 26.722.011 40.083-.007 3.812-.006 7.342.988 10.646 2.822 1.776.985 3.177 2.383 4.25 4.121 1.79 2.898 2.648 6.058 3.033 9.427.388 3.411-.23 6.586-1.363 9.786-1.548 4.37-2.85 8.827-4.257 13.247-3.595 11.294-7.17 22.595-10.8 33.878-.76 2.36-2.012 4.515-3.188 6.695-2.382 4.414-5.868 7.847-9.642 11.047-2.749 2.331-5.876 4.063-8.97 5.866-2.835 1.652-5.938 2.332-9.125 2.719-1.566.19-3.158.222-4.738.223-37.19.011-74.382.01-111.573.007-.541 0-1.082-.035-1.775-.058.098-.475.134-.838.247-1.175a16777.6 16777.6 0 0 1 7.59-22.684c.345-1.031.359-1.031 1.576-1.031 14.98-.002 29.96-.001 44.94-.001h56.509c1.132-.007 1.138-.005 1.5-1.112 2.603-7.97 5.2-15.941 7.805-23.91 2.54-7.774 5.086-15.546 7.625-23.32.136-.415.235-.843.388-1.399-.54-.031-.97-.079-1.402-.079-7.06-.004-14.12-.003-21.179-.003-26.378 0-52.756 0-79.134-.005-.604 0-1.239.115-1.88-.3m-28.282 36.294c.15-.537.24-.96.386-1.363 2.311-6.417 4.63-12.831 6.947-19.246.21-.58.42-1.16.626-1.742.144-.404.415-.608.856-.587.274.013.549-.002.824-.002 19.402 0 38.804 0 58.207.003.47 0 .94.039 1.558.066-.126.505-.196.897-.32 1.271-2.265 6.8-4.536 13.596-6.808 20.393-.436 1.303-.442 1.305-1.803 1.305H47.46c-1.03 0-2.06.007-3.09-.004-.33-.004-.661-.053-1.133-.094" fill-rule="evenodd"/></symbol><symbol id="dash-logo" viewBox="0 0 72.2 42.52" xmlns="http://www.w3.org/2000/svg"><defs><style>.axcls-1{fill:#363635}</style></defs><path class="axcls-1" d="M72.1 6.74a7.76 7.76 0 0 0-1.1-3.5A5 5 0 0 0 68.36.83 7.93 7.93 0 0 0 64.59 0h-49l-3.47 10.52h44.36l-7 21.48H5.13L1.62 42.52h49.19a13.34 13.34 0 0 0 4.29-.83A28.68 28.68 0 0 0 59.39 39a20.45 20.45 0 0 0 3.51-3.5 22.8 22.8 0 0 0 2.16-4.05L71.56 11a7.57 7.57 0 0 0 .54-4.28z"/><path class="axcls-1" d="M29.61 16.39H3.51L0 26.1h26.37z"/></symbol><symbol viewBox="0 0 2000 2000" id="doge" xmlns="http://www.w3.org/2000/svg"><path d="M1024 659H881.12v281.69h224.79v117.94H881.12v281.67H1031c38.51 0 316.16 4.35 315.73-327.72S1077.44 659 1024 659z"/><path d="M1000 0C447.71 0 0 447.71 0 1000s447.71 1000 1000 1000 1000-447.71 1000-1000S1552.29 0 1000 0zm39.29 1540.1H677.14v-481.46H549.48V940.7h127.65V459.21h310.82c73.53 0 560.56-15.27 560.56 549.48 0 574.09-509.21 531.41-509.21 531.41z"/></symbol><symbol id="doge-logo" viewBox="0 0 44.51 48.19" xmlns="http://www.w3.org/2000/svg"><defs><style>.azcls-1{fill:#363635}</style></defs><path class="azcls-1" d="M21.82 48.16s22.69 1.9 22.69-23.68C44.51-.68 22.81 0 19.53 0H5.69v21.45H0v5.26h5.69v21.45zm-7-21.45h10v-5.26h-10V8.9h6.36c2.38 0 14.36 1 14.38 15.76s-12.35 14.6-14.07 14.6h-6.71z"/></symbol><symbol viewBox="0 0 20 14" id="email" xmlns="http://www.w3.org/2000/svg"><path d="M20 3.5v8.709c0 .98-.815 1.791-1.841 1.791H1.84C.833 14 0 13.208 0 12.209V3.5c.043.032.088.062.133.092L8.33 8.907A3.064 3.064 0 0 0 10 9.4c.596 0 1.174-.17 1.671-.493l8.196-5.315c.045-.03.09-.06.133-.092zM18.16 0C19.173 0 20 .796 20 1.774c0 .569-.293 1.096-.783 1.41L11.02 8.452a1.889 1.889 0 0 1-2.042 0L.783 3.185A1.676 1.676 0 0 1 0 1.775C0 .795.826 0 1.84 0z"/></symbol><symbol viewBox="0 0 226.777 226.777" id="eth" xmlns="http://www.w3.org/2000/svg"><path d="M113.313 0C50.732 0 0 50.732 0 113.313s50.732 113.313 113.313 113.313 113.313-50.732 113.313-113.313S175.894 0 113.313 0zm-1.469 188.386l-44.78-63.344 44.78 26.218v37.126zm0-46.41l-45.083-26.408 45.083-19.748v46.156zm0-49.329l-43.631 19.11 43.631-73.306v54.196zm2.906-54.218l44.244 73.6-44.244-19.382V38.429zm0 149.957V151.26l44.78-26.218-44.78 63.344zm0-46.409V95.821l45.116 19.762-45.116 26.394z"/></symbol><symbol viewBox="0 0 13.453613 22" id="eth-icon" xmlns="http://www.w3.org/2000/svg"><path d="M.022 11.214L6.727 0l6.705 11.214-6.705 3.972-6.705-3.972zm9.987 3.325c1.702-1.003 3.43-2.023 3.445-2.022 0 0-6.726 9.483-6.73 9.483C6.719 22 .016 12.536 0 12.512c.029-.003 5.51 3.238 6.553 3.856l.17.1c.043-.016 1.652-.965 3.286-1.929z" fill-rule="evenodd"/></symbol><symbol id="eth-logo" viewBox="0 0 42.32 68.03" xmlns="http://www.w3.org/2000/svg"><defs><style>.bdcls-1{fill:#363635}</style></defs><path class="bdcls-1" d="M21.65 47.38l20.67-12.22-20.67-9.4v21.62zm0-22.69l20.49 9.32L21.65 0v24.69zM.67 39.85l20 28.18V51.67l-20-11.82zm40.99 0L21.65 51.67v16.36l20.01-28.18zm-20.99 7.53V25.76L0 35.16l20.67 12.22zm0-47.38L.18 34.01l20.49-9.32V0z"/></symbol><symbol viewBox="0 0 9 17.681274" id="fb" xmlns="http://www.w3.org/2000/svg"><path d="M9 6.315H5.762V4.737s-.181-1.5.868-1.5h2.133V0H5.132s-3.04-.013-3.04 3.039c0 .656-.002 1.85-.007 3.276H0v2.606h2.08l-.027 8.76h3.71v-8.76H8.21L9 6.315z" fill-rule="evenodd"/></symbol><symbol viewBox="0 0 32 32" id="hidden" xmlns="http://www.w3.org/2000/svg"><path d="M26.707 5.293a1 1 0 0 0-1.414 0l-3.174 3.174A14.471 14.471 0 0 0 16 7C7.874 7 1.481 15.041 1.213 15.383a1 1 0 0 0 0 1.234 27.724 27.724 0 0 0 6.823 5.933l-2.743 2.743a1 1 0 1 0 1.414 1.414l20-20a1 1 0 0 0 0-1.414zM11 16a5.006 5.006 0 0 1 5-5 4.892 4.892 0 0 1 2.73.856l-6.874 6.874A4.892 4.892 0 0 1 11 16zm19.787-.617a27.937 27.937 0 0 0-5.116-4.812l-4.741 4.741A4.874 4.874 0 0 1 21 16a5.006 5.006 0 0 1-5 5 4.874 4.874 0 0 1-.688-.07l-3.4 3.4A13.529 13.529 0 0 0 16 25c8.126 0 14.519-8.041 14.787-8.383a1 1 0 0 0 0-1.234z"/></symbol><symbol viewBox="0 0 16 16" id="in" xmlns="http://www.w3.org/2000/svg"><path d="M0 1.92a1.92 1.92 0 0 1 3.84 0c0 1.06-.86 1.94-1.92 1.94S0 2.98 0 1.92zm12.02 3.14c3.36 0 3.98 2.2 3.98 5.08v5.84h-3.32v-5.2c0-1.24-.02-2.82-1.72-2.82-1.72 0-1.98 1.34-1.98 2.74V16H5.66V5.32h3.18v1.46h.04c.44-.84 1.52-1.72 3.14-1.72zM.26 16V5.32h3.32V16H.26z" fill-rule="evenodd"/></symbol><symbol viewBox="0 0 18 18" id="inst" xmlns="http://www.w3.org/2000/svg"><path d="M13.5 0h-9A4.513 4.513 0 0 0 0 4.5v9C0 15.975 2.025 18 4.5 18h9c2.475 0 4.5-2.025 4.5-4.5v-9C18 2.024 15.975 0 13.5 0zM9 12.75a3.75 3.75 0 1 1 0-7.5 3.75 3.75 0 0 1 0 7.5zm4.875-7.5a1.125 1.125 0 1 1 0-2.25 1.125 1.125 0 0 1 0 2.25z"/></symbol><symbol viewBox="0 0 22 21" id="line" xmlns="http://www.w3.org/2000/svg"><path d="M10.956 0C4.916 0 0 4.016 0 8.95c0 4.42 3.899 8.124 9.162 8.828.357.076.843.237.966.542.11.277.072.704.035.993l-.15.936c-.04.277-.219 1.09.958.593 1.179-.495 6.315-3.747 8.616-6.409 1.574-1.734 2.326-3.512 2.326-5.482C21.913 4.016 16.996 0 10.956 0zM6.668 11.885H4.489a.58.58 0 0 1-.575-.578V6.924a.58.58 0 0 1 .575-.58.58.58 0 0 1 .576.58v3.804h1.603a.578.578 0 1 1 0 1.157zm2.252-.578a.579.579 0 0 1-.577.578.578.578 0 0 1-.572-.578V6.924a.58.58 0 0 1 .575-.58.58.58 0 0 1 .574.58v4.383zm5.241 0a.578.578 0 0 1-1.042.346l-2.23-3.048v2.701a.577.577 0 0 1-.576.578.577.577 0 0 1-.572-.578V6.924a.576.576 0 0 1 .57-.577.59.59 0 0 1 .452.233l2.248 3.06V6.924a.58.58 0 0 1 .575-.58.58.58 0 0 1 .575.58v4.383zm3.52-2.771a.578.578 0 0 1 0 1.159h-1.602v1.033h1.602c.319 0 .575.26.575.58a.578.578 0 0 1-.575.577h-2.178a.578.578 0 0 1-.573-.578V6.924a.58.58 0 0 1 .575-.58h2.179c.316 0 .572.263.572.58 0 .32-.256.578-.575.578h-1.602v1.034h1.602z"/></symbol><symbol viewBox="0 0 22 26" id="link-erc20" xmlns="http://www.w3.org/2000/svg"><g fill-rule="evenodd"><path fill-rule="nonzero" d="M7.37 0L5.81.897 1.56 3.353 0 4.25v8.5l1.56.897 4.289 2.456 1.56.897 1.56-.897 4.21-2.456 1.56-.897v-8.5l-1.56-.897L8.93.897 7.37 0zM3.12 10.957V6.043l4.25-2.456 4.25 2.456v4.913l-4.25 2.457-4.25-2.457z"/><path d="M22 21l-4.001 5L14 21l3.999 2.096L22 21zm-4.062-8l3.937 6.636L17.938 22 14 19.636 17.938 13z"/></g></symbol><symbol viewBox="0 0 24 24" id="link-icon" xmlns="http://www.w3.org/2000/svg"><path d="M12 0L9.798 1.266l-6 3.468L1.596 6v12l2.202 1.266 6.055 3.468L12.055 24l2.202-1.266 5.945-3.468L22.404 18V6l-2.202-1.266-6-3.468zM6 15.468V8.532l6-3.468 6 3.468v6.936l-6 3.468z"/></symbol><symbol viewBox="0 0 24 26" id="link-trc20" xmlns="http://www.w3.org/2000/svg"><path d="M7.37 0L5.81.897 1.56 3.353 0 4.25v8.5l1.56.897 4.289 2.456 1.56.897 1.56-.897 4.21-2.456 1.56-.897v-8.5l-1.56-.897L8.93.897 7.37 0zM3.12 10.957V6.043l4.25-2.456 4.25 2.456v4.913l-4.25 2.457-4.25-2.457z"/><path d="M21.528 14.806L12 13l5.014 13L24 17.229l-2.472-2.423zM21.537 16L23 17.315 19 18l2.537-2zm-3.253 2L14 14l7 1.45L18.284 18zM18 17.908L17.219 24 13 14l5 3.908zm.64.87L23 18l-5 6 .64-5.222z"/></symbol><symbol class="bmsvg-icon" viewBox="0 0 1024 1024" overflow="hidden" id="logout" xmlns="http://www.w3.org/2000/svg"><path d="M835.67 554.667H362.495A42.453 42.453 0 0 1 320 512a42.667 42.667 0 0 1 42.475-42.667h473.173L673.835 307.5a42.667 42.667 0 0 1 60.33-60.331l234.667 234.667a42.667 42.667 0 0 1 0 60.33L734.165 776.832a42.667 42.667 0 0 1-60.33-60.33l161.834-161.835zm-281.003-512a42.667 42.667 0 1 1 0 85.333H149.525C137.58 128 128 137.579 128 149.483v725.034C128 886.4 137.6 896 149.525 896h405.142a42.667 42.667 0 1 1 0 85.333H149.525A106.816 106.816 0 0 1 42.667 874.517V149.483A106.773 106.773 0 0 1 149.525 42.667h405.142z"/></symbol><symbol viewBox="0 0 226.777 226.777" id="ltc" xmlns="http://www.w3.org/2000/svg"><path d="M113.441 0C50.789 0 0 50.79 0 113.443c0 62.654 50.789 113.441 113.441 113.441 62.654 0 113.443-50.787 113.443-113.441C226.885 50.79 176.096 0 113.441 0zm44.036 168.762H68.839l7.45-35.566-14.486 9.933 3.519-19.463 15.151-10.43 14.862-70.939h27.671l-10.232 48.71L148.8 66.213l-4.222 20.167-36.02 24.693-7.126 33.93H162.4l-4.923 23.759z"/></symbol><symbol viewBox="0 0 17.5 20" id="ltc-icon" xmlns="http://www.w3.org/2000/svg"><path d="M1.784 14.018L.314 20H16.41l1.091-4.464H7.848l1.06-4.353 1.783-.714.85-3.438-1.763.715L11.678 0H5.266L2.665 10.536.86 11.26 0 14.71l1.784-.692z" fill-rule="evenodd"/></symbol><symbol id="ltc-logo" viewBox="0 0 46.48 51.02" xmlns="http://www.w3.org/2000/svg"><defs><style>.bpcls-1{fill:#363635}</style></defs><path class="bpcls-1" d="M20.26 41l3.31-12.48 7.85-2.86 1.95-7.34-.07-.18L25.58 21l5.56-21H15.36L8.08 27.35 2 29.57l-2 7.56 6.07-2.22L1.78 51h42l2.7-10z"/></symbol><symbol viewBox="0 0 512 512" id="monero" xmlns="http://www.w3.org/2000/svg"><circle cx="256" cy="256" r="256"/><path d="M364.2 393.163h107.979c-45.411 71.439-125.262 118.836-216.178 118.836S85.235 464.603 39.824 393.163h107.969V257.328l108.209 108.146L364.2 257.328v135.835z"/><path d="M512 256.001c0 28.599-4.692 56.1-13.343 81.784H421.21V122.537L256.002 286.062 90.794 122.537v215.248H13.346C4.694 312.102.003 284.6.003 256.001.003 114.617 114.617.003 256.001.003S512 114.616 512 256.001z"/></symbol><symbol id="monero-logo" viewBox="0 0 90.97 45.35" xmlns="http://www.w3.org/2000/svg"><defs><style>.brcls-1{fill:#363635}</style></defs><path class="brcls-1" d="M90.97 45.35v-8.84H73.65V0l-28.2 28.21L17.24 0v36.51H0v8.84h26.65V22.38l18.8 18.8 18.79-18.8v22.97h26.73z"/></symbol><symbol viewBox="0 0 75 75" id="payeer" xmlns="http://www.w3.org/2000/svg"><circle class="bsst0" cx="37.5" cy="37.5" r="37.5"/><path class="bsst1" d="M24.4 18.3c3.1-.5 7.5-.9 13.6-.9 6.3 0 10.6 1.2 13.6 3.5 2.8 2.3 4.7 5.9 4.7 10.3s-1.4 8-4.2 10.6c-3.5 3.3-8.5 4.7-14.5 4.7-1.4 0-2.4 0-3.5-.2v15.9h-9.9v-44l.2.1zm10 20.2c.9.2 1.9.3 3.3.3 5.4 0 8.7-2.8 8.7-7.3 0-4.2-2.8-6.6-7.8-6.6-2.1 0-3.5.2-4.2.3v13.3z"/></symbol><symbol id="payeer-logo" viewBox="0 0 75 75" xmlns="http://www.w3.org/2000/svg"><style>.st0{fill:#3499dc}.btst1{fill:#fff}</style><path class="btst1" d="M24.4 18.3c3.1-.5 7.5-.9 13.6-.9 6.3 0 10.6 1.2 13.6 3.5 2.8 2.3 4.7 5.9 4.7 10.3s-1.4 8-4.2 10.6c-3.5 3.3-8.5 4.7-14.5 4.7-1.4 0-2.4 0-3.5-.2v15.9h-9.9v-44l.2.1zm10 20.2c.9.2 1.9.3 3.3.3 5.4 0 8.7-2.8 8.7-7.3 0-4.2-2.8-6.6-7.8-6.6-2.1 0-3.5.2-4.2.3v13.3z"/></symbol><symbol viewBox="0 0 46 46" id="pm" xmlns="http://www.w3.org/2000/svg"><path d="M23 0C10.324 0 0 10.324 0 23s10.324 23 23 23 23-10.324 23-23S35.676 0 23 0zm-8.791 30.871H9.098c-.307 0-.41-.102-.41-.409 0-.306 0-.51.41-.51 1.329 0 1.43-.205 1.43-1.534v-3.271c0-.307.103-.41.41-.307h1.329c.306 0 .409.102.409.409v3.68c0 .92.204 1.022 1.022 1.124h.409c.409 0 .51.103.51.511 0 .205 0 .307-.408.307zm.715-6.849c-2.453.205-4.906.205-7.36-.409-.102 0-.306-.102-.408-.102-.205-.102-.307-.102-.512-.204.41.102.512.102 1.023.102.92.102 1.84.204 2.862.204 1.431.103 2.862 0 4.191-.306 2.147-.511 3.271-2.25 2.964-4.396 0-.102 0-.204-.102-.409v-.511c0-.102 0-.102-.102-.204v-.103l-.307-.613c-1.022-1.533-2.657-1.635-4.293-1.533-.307 0-.307.204-.307.409v6.337c0 .41-.102.512-.51.512h-1.227c-.205 0-.307-.103-.307-.307v-6.235c0-.41-.205-.614-.613-.614h-.818c-.307 0-.41 0-.41-.409 0-.307.205-.307.41-.307h6.542c1.431 0 2.658.614 3.578 1.84 0 0 .102.205.204.307 0 .102.102.102.102.205 0 .102.103.102.103.204l.306.92c0 .102.103.613.103.716v.51c0 .103 0 .512-.103.614-.306 1.636-1.329 2.658-2.862 3.271-.715.409-1.431.511-2.147.511zm23.614 6.85H33.12c-.307 0-.307-.205-.307-.41 0-.204-.102-.51.307-.51h.818c.613 0 .818-.205.818-.92.102-1.943.102-3.885.102-5.828v-4.497h-.102c-.41.715-.716 1.43-1.125 2.146 0 0 0 .103-.102.103 0 0 0 .102-.102.102-.103.102-.103.306-.205.409 0 0 0 .102-.102.102 0 .102 0 .102-.102.204 0 0 0 .103-.102.103-.614 1.533-1.432 2.964-2.147 4.395-.716 1.329-1.329 2.76-2.045 4.089-.102.102-.102.409-.306.409-.205 0-.205-.205-.307-.409C26.17 26.68 24.33 23 22.49 19.32c0-.102-.102-.204-.102-.307-.103-.204-.307-.51-.41-.817-.101.204-.101.408-.101.51v10.12c.204.818.306.92 1.124.92h.613c.41-.102.614.103.511.512 0 .306-.102.409-.408.409h-5.214c-.409 0-.306-.307-.409-.511 0-.307.103-.41.41-.41h.817c.818 0 1.124-.306 1.227-1.124.102-.715.102-1.43.204-2.146.102-1.023.102-2.147.102-3.17v-6.95c0-.512-.204-.614-.613-.716h-.409c-.409 0-.613-.204-.409-.613 0-.103.102-.103.205-.103h2.964c.102 0 .205.103.307.205.51 1.227 1.226 2.351 1.635 3.578 1.534 2.862 2.76 5.826 4.294 8.79 1.124-2.248 2.146-4.497 3.27-6.644 0-.102.103-.102.103-.204 0 0 0-.102.102-.102.818-1.738 1.636-3.476 2.454-5.316.102-.102.204-.204.306-.204h3.271c.307 0 .307.204.307.409 0 .204 0 .408-.307.408h-.409c-.817 0-.92.205-.92.92 0 2.556 0 5.01-.102 7.565v.92c0 .92.102 1.942 0 2.862 0 .409 0 .818.102 1.227 0 .204.307.51.614.51h.92c.306 0 .306.205.306.41 0 .306.103.613-.306.613z"/></symbol><symbol viewBox="0 0 17 8" id="pm-logo" xmlns="http://www.w3.org/2000/svg"><path d="M16 7.13h-.36a.6.6 0 0 1-.36-.14.51.51 0 0 1-.15-.28v-.49c0-.54 0-1.11-.06-1.69-.06-.58 0-1.72 0-1.72V1.69a2.57 2.57 0 0 1 .05-.61.53.53 0 0 1 .21-.33 1.58 1.58 0 0 1 .53-.14h.23a.14.14 0 0 0 0-.15.17.17 0 0 0-.09-.11h-1.85a2.997 2.997 0 0 1-.24.89l-.61 1.28-1.06 2.12-.42.87a8.427 8.427 0 0 1-.45.84c-.14-.26-.26-.5-.39-.76l-.38-.81-1.32-2.6c-.17-.36-.33-.72-.45-1a2.47 2.47 0 0 1-.14-.83H6.94a.15.15 0 0 0-.07.12.14.14 0 0 0 0 .14h.17c.16.034.317.077.47.13a.44.44 0 0 1 .2.29 1.63 1.63 0 0 1 0 .52v1.07c0 .41 0 .85-.07 1.29-.07.44 0 .65-.06.91s0 .51-.06.73c-.06.22 0 .46 0 .69a2.17 2.17 0 0 1-.11.54.36.36 0 0 1-.2.23 1.11 1.11 0 0 1-.35.1h-.23s-.06.07 0 .14a.18.18 0 0 0 .06.13h1.65l.61.05A.16.16 0 0 0 9 7.26a.17.17 0 0 0 0-.15h-.43a.58.58 0 0 1-.32-.1.45.45 0 0 1-.14-.31 2 2 0 0 1 0-.64V3.4c0-.35.05-.66.06-1 .01-.34 0-.67.05-1l.35.92.36.8 1 2.15c.09.18.19.4.31.67s.27.56.39.83c.107.234.197.474.27.72h.05a.11.11 0 0 0 .08 0c.08-.18.17-.4.3-.67.13-.27.26-.58.41-.89.15-.31.33-.65.51-1l1-1.94c.07-.16.15-.34.25-.54l.3-.57c.08-.18.17.5.17.5H14v3.8a.83.83 0 0 1 .1.56.33.33 0 0 1-.15.27c-.06.07-.18.1-.38.12h-.33v.15a.19.19 0 0 0 .06.13c.23 0 .47 0 .69-.06h1.3c.22 0 .45.05.67.06a.13.13 0 0 0 .06-.13.16.16 0 0 0-.02-.15zM5.4.44a3.33 3.33 0 0 0-.92-.35A7.07 7.07 0 0 0 3.28 0H2.07c-.36 0-.68 0-1 .06A.16.16 0 0 0 1 .21a.13.13 0 0 0 .1.14h.38a.54.54 0 0 1 .36.13.44.44 0 0 1 .16.39c.014.237.014.474 0 .71v2.24c.334.02.667.02 1 0V.69A.53.53 0 0 1 3 .4a.22.22 0 0 1 .15-.11h.45A1.9 1.9 0 0 1 5 .77c.319.364.484.837.46 1.32a1.92 1.92 0 0 1-.38 1.26 1.81 1.81 0 0 1-1 .62 8.34 8.34 0 0 1-1.93.13C1.47 4.08.76 4.04 0 3.97c.591.137 1.189.244 1.79.32.7.096 1.41.096 2.11 0 .318-.049.63-.13.93-.24a4.71 4.71 0 0 0 .82-.48c.189-.15.34-.341.44-.56a2.19 2.19 0 0 0 .18-.86 2 2 0 0 0-.27-1 1.83 1.83 0 0 0-.6-.71zM3.82 7.07a1.07 1.07 0 0 1-.55-.13.58.58 0 0 1-.24-.4 4.47 4.47 0 0 1 0-.88V4.59a5.32 5.32 0 0 1-1 0V5.7a6.2 6.2 0 0 1-.05.88.42.42 0 0 1-.2.38.77.77 0 0 1-.5.15h-.25a.13.13 0 0 0-.05.15.15.15 0 0 0 .07.14l.72-.05h1.46l.9.05s0-.08.07-.14a.19.19 0 0 0 0-.15l-.38-.04z"/></symbol><symbol viewBox="0 0 26 26" id="rdd" xmlns="http://www.w3.org/2000/svg"><path d="M17.662 11.212c-.38 0-.713.153-.959.39-.903-.606-2.12-.996-3.467-1.038l.7-3.063 2.231.486c0 .53.445.962.992.962.556 0 1.004-.444 1.004-.974S17.718 7 17.159 7c-.39 0-.726.228-.893.54l-2.464-.53c-.124-.032-.245.054-.278.174l-.769 3.378c-1.338.054-2.542.444-3.447 1.05a1.364 1.364 0 0 0-.971-.4c-1.407 0-1.867 1.832-.58 2.458a2.67 2.67 0 0 0-.065.606c0 2.057 2.387 3.724 5.319 3.724 2.944 0 5.331-1.667 5.331-3.724 0-.206-.023-.422-.078-.616 1.262-.629.797-2.448-.602-2.448zM9.799 13.8c0-.54.445-.975 1.004-.975.546 0 .991.432.991.975 0 .53-.445.962-.991.962-.557.003-1.004-.432-1.004-.962zm5.42 2.295c-.921.894-3.519.894-4.44 0-.1-.086-.1-.238 0-.336a.248.248 0 0 1 .335 0c.703.7 3.035.712 3.768 0a.248.248 0 0 1 .334 0c.104.098.104.25.003.336zm-.02-1.33c-.547 0-.992-.432-.992-.963 0-.54.445-.974.991-.974.557 0 1.005.432 1.005.974-.003.528-.448.963-1.005.963z"/><path d="M13 0C5.82 0 0 5.82 0 13s5.82 13 13 13 13-5.82 13-13S20.18 0 13 0zm0 24.818C6.473 24.818 1.182 19.527 1.182 13 1.182 6.473 6.473 1.182 13 1.182c6.527 0 11.818 5.291 11.818 11.818 0 6.527-5.291 11.818-11.818 11.818z"/></symbol><symbol viewBox="0 0 24 24" id="reset" xmlns="http://www.w3.org/2000/svg"><path d="M23.297 11.297a.703.703 0 0 0-.703.703c0 5.841-4.753 10.594-10.594 10.594C6.159 22.594 1.406 17.84 1.406 12 1.406 6.159 6.16 1.406 12 1.406c2.352 0 4.587.762 6.423 2.168l-1.22.216a.703.703 0 1 0 .245 1.385l2.662-.47a.703.703 0 0 0 .581-.693V1.349a.703.703 0 0 0-1.406 0v1.114A11.909 11.909 0 0 0 12 0a11.922 11.922 0 0 0-8.485 3.515A11.922 11.922 0 0 0 0 12c0 3.205 1.248 6.219 3.515 8.485A11.922 11.922 0 0 0 12 24c3.205 0 6.219-1.248 8.485-3.515A11.921 11.921 0 0 0 24 12a.703.703 0 0 0-.703-.703z"/><path d="M15.6 9V7.857C15.6 5.841 13.985 4.2 12 4.2S8.4 5.84 8.4 7.857V9h1.35V7.857c0-1.26 1.01-2.286 2.25-2.286s2.25 1.026 2.25 2.286V9h1.35zm-8.4 2.497v5.806c0 .385.307.697.686.697h8.228a.691.691 0 0 0 .686-.697v-5.806a.691.691 0 0 0-.686-.697H7.886a.691.691 0 0 0-.686.697zm4.343 1.858h.914c.379 0 .686.312.686.697a.691.691 0 0 1-.686.696h-.914a.691.691 0 0 1-.686-.696c0-.385.307-.697.686-.697z"/></symbol><symbol viewBox="0 0 12 12" id="search" xmlns="http://www.w3.org/2000/svg"><path d="M5.257 9.005a3.753 3.753 0 0 0 3.755-3.752A3.753 3.753 0 0 0 5.257 1.5a3.753 3.753 0 0 0-3.755 3.752 3.753 3.753 0 0 0 3.755 3.752zm0 1.5A5.255 5.255 0 0 1 0 5.253 5.255 5.255 0 0 1 5.257 0a5.255 5.255 0 0 1 5.257 5.253 5.255 5.255 0 0 1-5.257 5.252zm2.7-2.129l.425-.425a.45.45 0 0 1 .638.001l2.849 2.856a.45.45 0 0 1-.001.637l-.425.424a.45.45 0 0 1-.638 0L7.956 9.012a.45.45 0 0 1 0-.636z"/></symbol><symbol viewBox="0 0 20 20" id="skype" xmlns="http://www.w3.org/2000/svg"><path d="M14.584 10.724a4.642 4.642 0 0 0-5.308-5.308A2.796 2.796 0 0 0 7.803 5 2.802 2.802 0 0 0 5 7.803a2.8 2.8 0 0 0 .416 1.473 4.642 4.642 0 0 0 5.308 5.308A2.802 2.802 0 0 0 15 12.197c0-.541-.152-1.046-.416-1.473zm-2.44.956a1.7 1.7 0 0 1-.758.603c-.334.146-.726.217-1.181.217-.543 0-.995-.098-1.351-.298a1.78 1.78 0 0 1-.615-.573c-.157-.237-.239-.471-.239-.701 0-.136.05-.251.147-.346a.515.515 0 0 1 .37-.146c.12 0 .226.038.31.112a.848.848 0 0 1 .213.329c.069.166.144.305.226.417.079.108.19.2.337.274.144.071.334.109.572.109.328 0 .593-.075.792-.217.203-.146.301-.322.301-.54a.551.551 0 0 0-.16-.413 1.04 1.04 0 0 0-.426-.247 7.519 7.519 0 0 0-.703-.183 5.36 5.36 0 0 1-.994-.312 1.628 1.628 0 0 1-.642-.491 1.26 1.26 0 0 1-.238-.776c0-.295.085-.556.252-.786.166-.23.408-.404.723-.529A3.056 3.056 0 0 1 10.189 7c.34 0 .63.04.88.122.248.081.454.19.618.325.163.136.284.278.36.427a.97.97 0 0 1 .114.437.523.523 0 0 1-.147.36.474.474 0 0 1-.363.159c-.131 0-.232-.03-.301-.098a1.307 1.307 0 0 1-.22-.305 1.337 1.337 0 0 0-.356-.461c-.134-.109-.357-.163-.664-.163-.285 0-.514.061-.684.18-.173.118-.255.257-.255.42 0 .102.03.186.085.26a.725.725 0 0 0 .242.194c.105.054.21.098.314.129.108.03.285.078.53.135a8 8 0 0 1 .844.23c.252.086.468.187.645.31.18.121.32.274.418.46.102.186.15.417.15.685.004.328-.08.616-.254.874z"/><path d="M10 0C4.477 0 0 4.477 0 10s4.477 10 10 10 10-4.477 10-10S15.523 0 10 0zm0 19.09A9.09 9.09 0 1 1 10 .91a9.09 9.09 0 0 1 0 18.18z"/></symbol><symbol viewBox="0 0 26.092041 20" id="sol-icon" xmlns="http://www.w3.org/2000/svg"><path d="M4.547.05A.164.164 0 0 1 4.663 0h21.068a.157.157 0 0 1 .116.264L21.34 5.086a.157.157 0 0 1-.114.05H.156a.159.159 0 0 1-.114-.266L4.547.05zm21.184 12.517H4.663a.164.164 0 0 1-.116-.05L.042 7.707a.157.157 0 0 1 .114-.265h21.07a.15.15 0 0 1 .114.05l4.507 4.82a.157.157 0 0 1-.116.255zM4.75 14.914a.158.158 0 0 1 .115-.05h21.07a.157.157 0 0 1 .114.264l-4.505 4.822a.159.159 0 0 1-.114.05H.36a.157.157 0 0 1-.114-.265l4.505-4.82z" fill-rule="evenodd"/></symbol><symbol viewBox="0 0 23 21" id="talk" xmlns="http://www.w3.org/2000/svg"><path d="M11.455 0c6.325 0 11.454 4.017 11.454 8.972 0 4.955-5.129 8.972-11.454 8.972-.694 0-1.374-.05-2.035-.142-4.508 3.156-4.85 3.315-5.113 3.16l-.027-.015c-.178-.117-.096-.315 1.09-4.374C2.143 14.986 0 12.175 0 8.972 0 4.017 5.129 0 11.455 0zM6.814 6.29H3.43a.646.646 0 0 0-.647.644c0 .354.29.642.648.642h1.03v3.9c0 .346.297.628.661.628.364 0 .66-.282.66-.627v-3.9h1.032c.357 0 .648-.29.648-.644a.646.646 0 0 0-.648-.643zm2.217.001c-.43.01-.768.334-.88.649l-1.58 4.133c-.202.62-.086 1.023.576 1.022.686 0 .563-.544.877-1.14h2.015c.317.6.19 1.14.877 1.14 1.53.001.04-1.92-1.004-5.155-.11-.315-.45-.639-.881-.649zm7.195 0a.66.66 0 0 0-.66.656v4.491c0 .363.296.657.66.657a.659.659 0 0 0 .662-.657v-1.431l.229-.229c.89.85 1.564 2.856 2.475 2.168a.653.653 0 0 0 .257-.433c.068-.463-.223-.516-1.755-2.627.649-.905 2.214-1.562 1.458-2.312-.77-.765-1.446.87-2.665 1.784v-1.41a.659.659 0 0 0-.66-.658zm-3.628 0a.667.667 0 0 0-.675.656c.2 3.566-.473 5.06.633 5.06h2.12c.35 0 .633-.27.634-.602 0-.331-.283-.601-.633-.601h-1.404V6.947a.666.666 0 0 0-.675-.657zM9.032 7.927l.66 1.863h-1.32l.66-1.863z"/></symbol><symbol viewBox="0 0 16 16" id="tel" xmlns="http://www.w3.org/2000/svg"><path d="M3.257 0c.204 0 .362.139.537.346.417.5 2.274 3.427 2.189 3.915-.04.23-.236.404-.794.872a6.678 6.678 0 0 0-.77.71c.114.47.283.926.503 1.357A8.4 8.4 0 0 0 8.8 11.078c.43.22.886.389 1.356.503a6.64 6.64 0 0 0 .711-.77c.468-.558.643-.753.872-.794.487-.085 3.416 1.77 3.915 2.189.208.175.347.333.347.537 0 .59-3.298 3.257-3.726 3.257-.035 0-3.468-.057-7.88-4.394C.218 7.358.01 4.016 0 3.743v-.017C0 3.298 2.667 0 3.257 0zm5.314 2.857a4.577 4.577 0 0 1 4.572 4.572H12A3.432 3.432 0 0 0 8.571 4zm0-2.857A7.437 7.437 0 0 1 16 7.429h-1.143a6.293 6.293 0 0 0-6.286-6.286z"/></symbol><symbol viewBox="0 0 18 15.671997" id="tg" xmlns="http://www.w3.org/2000/svg"><path d="M.318 7.515l4.147 1.548 1.606 5.162a.488.488 0 0 0 .775.234l2.312-1.885a.69.69 0 0 1 .841-.023l4.17 3.027a.489.489 0 0 0 .766-.295L17.989.589a.489.489 0 0 0-.654-.555L.313 6.6a.49.49 0 0 0 .005.915zm5.494.724l8.106-4.993c.146-.09.296.108.17.224l-6.69 6.218a1.387 1.387 0 0 0-.429.83l-.228 1.689c-.03.225-.347.247-.409.03l-.876-3.08a.816.816 0 0 1 .356-.918z"/></symbol><symbol viewBox="0 0 22.82837 24" id="trx-icon" xmlns="http://www.w3.org/2000/svg"><path d="M18.127 3.334L0 0l9.54 24L22.827 7.807l-4.701-4.473zm-.29 1.47l2.774 2.636-7.584 1.373 4.81-4.009zM11.38 8.54L3.386 1.91l13.063 2.404-5.07 4.226zm-.573 1.175L9.506 20.488 2.479 2.801l8.328 6.913zm1.205.57l8.398-1.522-9.63 11.735 1.232-10.214z"/></symbol><symbol viewBox="0 0 64 64" id="trx-logo" xmlns="http://www.w3.org/2000/svg"><path class="cfcls-1" d="M61.55 19.28c-3-2.77-7.15-7-10.53-10l-.2-.14a3.82 3.82 0 0 0-1.11-.62C41.56 7 3.63-.09 2.89 0a1.4 1.4 0 0 0-.58.22l-.19.15a2.23 2.23 0 0 0-.52.84l-.05.13v.82C5.82 14.05 22.68 53 26 62.14c.2.62.58 1.8 1.29 1.86h.16c.38 0 2-2.14 2-2.14S58.41 26.74 61.34 23a9.46 9.46 0 0 0 1-1.48 2.41 2.41 0 0 0-.79-2.24zm-24.67 4.09l12.36-10.25 7.25 6.68zm-4.8-.67L10.8 5.26l34.43 6.35zM34 27.27l21.78-3.51-24.9 30zM7.91 7L30.3 26l-3.24 27.78z"/></symbol><symbol viewBox="0 0 17.230713 14" id="tw" xmlns="http://www.w3.org/2000/svg"><path d="M17.23 1.657a7.366 7.366 0 0 1-2.035.558A3.513 3.513 0 0 0 16.75.263a7.06 7.06 0 0 1-2.24.855A3.531 3.531 0 0 0 8.4 3.534c0 .28.024.549.082.805A9.999 9.999 0 0 1 1.2.644 3.556 3.556 0 0 0 .716 2.43c0 1.223.63 2.307 1.57 2.935A3.489 3.489 0 0 1 .688 4.93v.039a3.549 3.549 0 0 0 2.83 3.47c-.287.08-.6.117-.926.117-.226 0-.454-.013-.669-.06a3.566 3.566 0 0 0 3.301 2.46 7.098 7.098 0 0 1-4.38 1.507c-.29 0-.567-.013-.845-.048A9.945 9.945 0 0 0 5.42 14c6.5 0 10.053-5.385 10.053-10.052 0-.156-.005-.307-.013-.457a7.047 7.047 0 0 0 1.77-1.834z"/></symbol><symbol viewBox="0 0 11.455078 22" id="usd-icon" xmlns="http://www.w3.org/2000/svg"><path d="M11.294 13.394a4.439 4.439 0 0 0-.386-.94 3.175 3.175 0 0 0-.651-.779 7.772 7.772 0 0 0-.761-.614 7.429 7.429 0 0 0-.927-.521 16.656 16.656 0 0 0-.933-.43c-.23-.094-.56-.223-.995-.387-.384-.147-.67-.26-.859-.337a18.976 18.976 0 0 1-.743-.332 4.329 4.329 0 0 1-.687-.38 5.4 5.4 0 0 1-.485-.405 1.382 1.382 0 0 1-.362-.51 1.625 1.625 0 0 1-.105-.59c0-.556.246-1.01.737-1.362.491-.352 1.125-.528 1.903-.528.344 0 .694.047 1.05.141a5.473 5.473 0 0 1 1.633.712c.225.144.384.252.478.326.095.073.154.122.178.147.107.082.217.11.332.086.123-.008.217-.074.282-.196l.995-1.793c.098-.163.078-.319-.061-.466-.05-.05-.11-.107-.185-.172a6.364 6.364 0 0 0-.479-.356 5.919 5.919 0 0 0-.78-.46 7.884 7.884 0 0 0-1.067-.412 6.81 6.81 0 0 0-1.357-.282V.393a.383.383 0 0 0-.11-.283.383.383 0 0 0-.283-.11H5.01a.377.377 0 0 0-.277.117.378.378 0 0 0-.116.276v2.21c-1.285.245-2.329.794-3.13 1.645C.682 5.099.281 6.089.281 7.218c0 .336.035.656.104.958.07.303.156.575.258.817.103.241.248.479.436.712.188.233.366.434.534.601.168.168.387.342.657.522s.501.326.694.436a9 9 0 0 0 .767.38c.32.144.57.252.755.326.184.073.436.176.755.306.442.172.77.305.982.4.213.094.483.225.81.392.328.168.567.322.719.46.151.14.288.312.411.516.123.205.185.422.185.651 0 .647-.252 1.146-.755 1.497-.504.353-1.087.529-1.75.529-.303 0-.606-.033-.908-.099-1.064-.212-2.059-.724-2.984-1.534l-.024-.025a.305.305 0 0 0-.295-.11c-.13.016-.225.065-.282.147L.086 16.758c-.123.163-.114.331.025.503.04.05.112.123.215.221.102.098.293.252.57.46.279.21.582.406.91.59.327.184.742.366 1.245.546a7.7 7.7 0 0 0 1.566.38v2.15c0 .106.039.198.116.275.078.078.17.117.277.117h1.657a.383.383 0 0 0 .283-.11.383.383 0 0 0 .11-.283V19.46c1.301-.213 2.36-.772 3.173-1.676.815-.905 1.222-1.983 1.222-3.235 0-.41-.053-.794-.16-1.154z" fill-rule="evenodd"/></symbol><symbol viewBox="0 0 22.520386 26.083298" id="usdc-erc20" xmlns="http://www.w3.org/2000/svg"><path d="M2.019 6.034c-1.446 3.84.548 8.177 4.438 9.574.15.1.3.299.3.448v.699c0 .1 0 .15-.05.199-.05.2-.25.3-.45.2a8.97 8.97 0 0 1-5.834-5.835C-1.073 6.582 1.52 1.546 6.257.05c.05-.049.15-.049.2-.049.2.05.3.2.3.399v.698c0 .25-.1.399-.3.499-2.045.748-3.69 2.343-4.438 4.438zM11.294.249c.05-.2.25-.299.449-.2a9.044 9.044 0 0 1 5.834 5.885c1.496 4.737-1.097 9.773-5.834 11.27-.05.05-.15.05-.2.05-.2-.05-.3-.2-.3-.4v-.698c0-.25.1-.399.3-.498 2.045-.748 3.69-2.344 4.438-4.438 1.446-3.84-.548-8.178-4.438-9.574-.15-.1-.3-.3-.3-.5V.45c0-.1 0-.15.05-.2zM9.15 7.78c2.094.25 3.141.848 3.141 2.593 0 1.346-.997 2.393-2.493 2.643v1.196c-.05.25-.2.4-.4.4h-.747c-.25-.05-.399-.2-.399-.4v-1.196c-1.646-.25-2.443-1.147-2.643-2.394v-.05c0-.2.15-.349.35-.349h.847c.15 0 .3.1.349.3.15.747.598 1.296 1.895 1.296.947 0 1.645-.548 1.645-1.346s-.448-1.097-1.845-1.347c-2.094-.25-3.091-.897-3.091-2.543 0-1.247.947-2.244 2.443-2.443V2.992c.05-.25.2-.4.4-.4h.747c.25.05.399.2.399.4v1.197c1.147.1 2.044.947 2.244 2.044v.05c0 .2-.15.349-.35.349h-.797c-.15 0-.3-.1-.35-.25-.248-.747-.747-1.047-1.645-1.047-.997 0-1.496.45-1.496 1.147 0 .699.3 1.097 1.796 1.297zm13.37 13.303l-4 5-4-5 4 2.097 4-2.097zm-4.062-8l3.937 6.636-3.937 2.364-3.938-2.364 3.938-6.636z" fill-rule="evenodd"/></symbol><symbol viewBox="0 0 13 12.460571" id="usdc-icon" xmlns="http://www.w3.org/2000/svg"><path d="M8.877 7.49c0-1.26-.756-1.692-2.269-1.872-1.08-.144-1.296-.432-1.296-.936 0-.505.36-.829 1.08-.829.648 0 1.008.216 1.188.757a.27.27 0 0 0 .253.18h.576a.246.246 0 0 0 .252-.252v-.036a1.8 1.8 0 0 0-1.62-1.477v-.864c0-.144-.109-.252-.289-.288h-.54c-.144 0-.252.108-.288.288v.828c-1.08.144-1.765.864-1.765 1.765 0 1.188.72 1.656 2.233 1.836 1.008.18 1.332.397 1.332.973s-.504.972-1.188.972c-.936 0-1.26-.396-1.369-.936-.035-.144-.144-.216-.252-.216h-.612a.246.246 0 0 0-.252.252v.036c.144.9.72 1.548 1.909 1.728v.865c0 .144.108.252.288.288h.54c.144 0 .252-.108.288-.288V9.4c1.08-.18 1.8-.937 1.8-1.91z" fill-rule="evenodd"/><path d="M4.663 11.272C1.854 10.264.413 7.131 1.458 4.358a5.327 5.327 0 0 1 3.205-3.206c.144-.072.216-.18.216-.36V.288c0-.144-.072-.252-.216-.288-.036 0-.108 0-.144.036C1.098 1.116-.775 4.754.306 8.175a6.479 6.479 0 0 0 4.213 4.214c.144.072.288 0 .324-.144.036-.036.036-.072.036-.144v-.505c0-.108-.108-.252-.216-.324zM8.481.036c-.144-.072-.288 0-.324.144-.036.036-.036.072-.036.144v.504c0 .144.108.288.216.36 2.809 1.009 4.25 4.142 3.205 6.915a5.328 5.328 0 0 1-3.205 3.205c-.144.072-.216.18-.216.36v.505c0 .144.072.252.216.288.036 0 .108 0 .144-.036 3.421-1.08 5.294-4.718 4.213-8.14A6.532 6.532 0 0 0 8.481.037z"/></symbol><symbol viewBox="0 0 25.520386 26.083298" id="usdc-trc20" xmlns="http://www.w3.org/2000/svg"><path d="M2.019 6.034c-1.446 3.84.548 8.177 4.438 9.574.15.1.3.299.3.448v.699c0 .1 0 .15-.05.199-.05.2-.25.3-.45.2a8.97 8.97 0 0 1-5.834-5.835C-1.073 6.582 1.52 1.546 6.257.05c.05-.049.15-.049.2-.049.2.05.3.2.3.399v.698c0 .25-.1.399-.3.499-2.045.748-3.69 2.343-4.438 4.438zM11.294.249c.05-.2.25-.299.449-.2a9.044 9.044 0 0 1 5.834 5.885c1.496 4.737-1.097 9.773-5.834 11.27-.05.05-.15.05-.2.05-.2-.05-.3-.2-.3-.4v-.698c0-.25.1-.399.3-.498 2.045-.748 3.69-2.344 4.438-4.438 1.446-3.84-.548-8.178-4.438-9.574-.15-.1-.3-.3-.3-.5V.45c0-.1 0-.15.05-.2zM9.15 7.78c2.094.25 3.141.848 3.141 2.593 0 1.346-.997 2.393-2.493 2.643v1.196c-.05.25-.2.4-.4.4h-.747c-.25-.05-.399-.2-.399-.4v-1.196c-1.646-.25-2.443-1.147-2.643-2.394v-.05c0-.2.15-.349.35-.349h.847c.15 0 .3.1.349.3.15.747.598 1.296 1.895 1.296.947 0 1.645-.548 1.645-1.346s-.448-1.097-1.845-1.347c-2.094-.25-3.091-.897-3.091-2.543 0-1.247.947-2.244 2.443-2.443V2.992c.05-.25.2-.4.4-.4h.747c.25.05.399.2.399.4v1.197c1.147.1 2.044.947 2.244 2.044v.05c0 .2-.15.349-.35.349h-.797c-.15 0-.3-.1-.35-.25-.248-.747-.747-1.047-1.645-1.047-.997 0-1.496.45-1.496 1.147 0 .699.3 1.097 1.796 1.297z" fill-rule="evenodd"/><path d="M23.049 14.89l-9.529-1.807 5.015 13 6.985-8.77-2.471-2.424zm.008 1.193l1.463 1.315-4 .685 2.537-2zm-3.253 2l-4.284-4 7 1.45-2.716 2.55zm-.284-.091l-.78 6.091-4.22-10 5 3.909zm.64.869l4.36-.778-5 6 .64-5.222z"/></symbol><symbol viewBox="0 0 27 23" id="usdt-bep20" xmlns="http://www.w3.org/2000/svg"><path d="M10.826 5.568V3.36h5.045V0H2.137v3.36h5.045v2.208C3.084 5.757 0 6.568 0 7.54s3.084 1.783 7.182 1.973v7.062h3.648V9.513C14.924 9.323 18 8.512 18 7.54c-.004-.972-3.08-1.783-7.174-1.972zm.004 3.348c-.102.004-.63.037-1.807.037-.943 0-1.602-.025-1.837-.037v.004C3.566 8.76.861 8.129.861 7.375c0-.753 2.701-1.383 6.325-1.544v2.455c.239.016.914.057 1.853.057 1.124 0 1.689-.045 1.796-.057V5.823c3.615.16 6.313.79 6.313 1.544-.009.754-2.706 1.384-6.318 1.549M24.945 15.5l1.482 1.518L20.445 23l-1.482-1.482 5.982-6.018zm-2.25-2.25l1.482 1.518-5.982 5.982-1.482-1.482 5.982-6.018zm-6.75 2.25l1.482 1.518-1.482 1.482-1.482-1.482 1.482-1.518zm4.5-4.5l1.482 1.518-3.732 3.732-1.482-1.482L20.445 11z"/></symbol><symbol viewBox="0 0 22 24" id="usdt-erc20" xmlns="http://www.w3.org/2000/svg"><path d="M10.826 5.568V3.36h5.045V0H2.137v3.36h5.045v2.208C3.084 5.757 0 6.568 0 7.54s3.084 1.783 7.182 1.973v7.062h3.649V9.513C14.924 9.323 18 8.512 18 7.54c-.004-.972-3.08-1.783-7.174-1.972zm.005 3.348c-.104.004-.63.037-1.808.037-.943 0-1.602-.025-1.837-.037v.004C3.566 8.76.861 8.129.861 7.375c0-.753 2.701-1.383 6.325-1.544v2.455c.239.016.914.057 1.853.057 1.124 0 1.688-.045 1.796-.057V5.823c3.615.16 6.313.79 6.313 1.544-.009.754-2.706 1.384-6.317 1.549"/><path d="M22 19l-4.001 5L14 19l3.999 2.096L22 19zm-4.062-8l3.937 6.636L17.938 20 14 17.636 17.938 11z" fill-rule="evenodd"/></symbol><symbol viewBox="0 0 23.54712 21.584908" id="usdt-icon" xmlns="http://www.w3.org/2000/svg"><path d="M14.163 7.25V4.376h6.599V0H2.796v4.376h6.6V7.25C4.034 7.497 0 8.554 0 9.82c0 1.265 4.035 2.321 9.395 2.568v9.197h4.773v-9.197c5.355-.247 9.38-1.303 9.38-2.569-.006-1.265-4.03-2.322-9.385-2.569zm.005 4.36c-.134.006-.824.049-2.365.049a50.56 50.56 0 0 1-2.402-.049v.006c-4.736-.21-8.275-1.03-8.275-2.011 0-.982 3.534-1.802 8.275-2.011v3.196a36.58 36.58 0 0 0 2.424.075c1.47 0 2.209-.06 2.349-.075V7.583c4.73.209 8.258 1.03 8.258 2.01-.01.982-3.54 1.803-8.264 2.017"/></symbol><symbol viewBox="0 0 226.777 226.777" id="usdt-logo" xmlns="http://www.w3.org/2000/svg"><path d="M226.883 107.66c0-14.245-38.761-26.13-90.27-28.872l-.004-22.697h64.315V8.855H25.06v47.236h64.31v22.808C38.799 81.829.97 93.59.97 107.66c0 14.072 37.829 25.834 88.4 28.759v81.504h47.239V136.53c51.513-2.736 90.274-14.625 90.274-28.87zm-112.957 14.033c-55.288 0-100.109-8.557-100.109-19.119 0-8.943 32.139-16.451 75.553-18.54v5.383h.005v22.059c7.827.439 16.053.669 24.551.669 7.825 0 15.424-.199 22.688-.563v-27.63c44.355 1.961 77.423 9.548 77.423 18.622-.001 10.562-44.823 19.119-100.111 19.119z"/></symbol><symbol viewBox="0 0 26 24" id="usdt-trc20" xmlns="http://www.w3.org/2000/svg"><path d="M10.826 5.568V3.36h5.045V0H2.137v3.36h5.045v2.208C3.084 5.757 0 6.568 0 7.54s3.084 1.783 7.182 1.973v7.062h3.649V9.513C14.924 9.323 18 8.512 18 7.54c-.004-.972-3.08-1.783-7.174-1.972zm.005 3.348c-.104.004-.63.037-1.808.037-.943 0-1.602-.025-1.837-.037v.004C3.566 8.76.861 8.129.861 7.375c0-.753 2.701-1.383 6.325-1.544v2.455c.239.016.914.057 1.853.057 1.124 0 1.688-.045 1.796-.057V5.823c3.615.16 6.313.79 6.313 1.544-.009.754-2.706 1.384-6.317 1.549"/><path d="M23.528 12.806L14 11l5.014 13L26 15.229l-2.472-2.423zM23.537 14L25 15.315 21 16l2.537-2zm-3.253 2L16 12l7 1.45L20.284 16zM20 15.908L19.219 22 15 12l5 3.908zm.64.87L25 16l-5 6 .64-5.222z"/></symbol><symbol viewBox="0 0 152 152" id="viber" xmlns="http://www.w3.org/2000/svg"><path d="M89 11H63c-25.2 0-45.5 20.3-45.5 45.5V76c0 17.6 10.1 33.6 26 41.1v21.8c0 1.1 1 2.1 2.3 2.1.5 0 1.1-.2 1.5-.6l18.8-18.9H89c25.2 0 45.5-20.3 45.5-45.5V56.5C134.5 31.3 114.2 11 89 11zm17.1 85.3l-6.5 6.5c-7 6.8-25-1-40.9-17.2s-23-34.5-16.3-41.3l6.5-6.5c2.6-2.4 6.7-2.3 9.3.2l9.4 9.8c2.4 2.6 2.4 6.5-.2 9.1-.7.7-1.5 1.1-2.4 1.5-3.3 1-5 4.2-4.2 7.5 1.6 7.2 10.7 16.2 17.6 18 3.2.8 6.5-1 7.6-4.1 1.1-3.2 4.7-5 8.1-3.9 1 .3 1.8 1 2.6 1.6l9.4 9.8c2.4 2.4 2.4 6.4 0 9zM81.8 41.9c-.7 0-1.3 0-1.9.2-1.1.2-2.3-.7-2.4-2s.7-2.3 1.9-2.4c.8-.2 1.6-.2 2.4-.2 12 0 21.6 9.8 21.8 21.6 0 .8 0 1.6-.2 2.4-.2 1.1-1.1 2.1-2.4 1.9s-2.1-1.1-1.9-2.4c0-.7.2-1.3.2-1.9-.1-9.4-7.9-17.2-17.5-17.2zm13 17.4c-.2 1.1-1.1 2.1-2.4 1.9-1-.2-1.9-1-1.9-1.9 0-4.7-3.9-8.6-8.6-8.6-1.1.2-2.3-.8-2.4-2-.2-1.1.8-2.3 1.9-2.4h.3c7.5 0 13.1 5.8 13.1 13zm16.6 6.9c-.2 1.1-1.3 1.9-2.4 1.8s-1.9-1.3-1.8-2.4v-.3c.5-1.9.7-3.9.7-6 0-14.3-11.7-26-26-26H80c-1.1.2-2.3-.8-2.3-2-.2-1.1.8-2.3 1.9-2.3.8 0 1.6-.2 2.3-.2 16.7 0 30.4 13.6 30.4 30.4-.1 2.3-.4 4.8-.9 7z"/></symbol><symbol viewBox="0 0 519.643 519.643" id="view" xmlns="http://www.w3.org/2000/svg"><circle cx="259.823" cy="259.866" r="80"/><path d="M511.673 237.706c-61.494-74.31-154.579-145.84-251.85-145.84-97.29 0-190.397 71.58-251.85 145.84-10.63 12.84-10.63 31.48 0 44.32 15.45 18.67 47.84 54.71 91.1 86.2 108.949 79.312 212.311 79.487 321.5 0 43.26-31.49 75.65-67.53 91.1-86.2 10.599-12.815 10.654-31.438 0-44.32zm-251.85-89.84c61.76 0 112 50.24 112 112s-50.24 112-112 112-112-50.24-112-112 50.24-112 112-112z"/></symbol><symbol viewBox="0 0 18 18" id="wapp" xmlns="http://www.w3.org/2000/svg"><path d="M9.002 0h-.004C4.035 0 0 4.037 0 9c0 1.969.634 3.793 1.713 5.275L.592 17.62l3.46-1.106A8.922 8.922 0 0 0 9.001 18C13.965 18 18 13.962 18 9s-4.035-9-8.998-9zm5.237 12.71c-.217.612-1.079 1.12-1.766 1.27-.47.1-1.085.18-3.152-.678-2.645-1.096-4.348-3.783-4.481-3.958-.127-.174-1.07-1.423-1.07-2.714 0-1.292.656-1.92.92-2.19.217-.222.576-.324.92-.324.112 0 .212.006.302.01.264.012.397.027.571.445.218.523.746 1.815.81 1.947.064.133.128.313.038.487-.085.18-.159.26-.292.413-.133.153-.258.27-.391.434-.122.143-.259.296-.106.56.153.26.682 1.122 1.46 1.815 1.005.895 1.82 1.18 2.11 1.302.218.09.477.069.635-.1.202-.217.45-.577.703-.932.18-.254.408-.285.646-.195.243.084 1.529.72 1.793.851.265.133.44.196.503.307.063.112.063.635-.154 1.25z"/></symbol><symbol viewBox="0 0 20 17.5" id="wchat" xmlns="http://www.w3.org/2000/svg"><path d="M0 6.25C0 2.799 3.357 0 7.5 0c3.66 0 6.704 2.186 7.364 5.076A9.072 9.072 0 0 0 13.75 5c-4.136 0-7.5 2.804-7.5 6.25 0 .401.05.793.138 1.174a8.512 8.512 0 0 1-1.82-.453l-2.693 1.154.989-1.977C1.123 10.005 0 8.24 0 6.25zm4.063-2.5a.938.938 0 1 0 1.875 0 .938.938 0 0 0-1.875 0zm5 0a.938.938 0 1 0 1.875 0 .938.938 0 0 0-1.876 0zm4.687 2.5c3.451 0 6.25 2.239 6.25 5 0 1.599-.955 3.006-2.415 3.921L18.75 17.5l-3.369-1.444a7.634 7.634 0 0 1-1.631.194c-3.451 0-6.25-2.239-6.25-5s2.799-5 6.25-5zM10.937 10a.938.938 0 1 0 1.876 0 .938.938 0 0 0-1.876 0zm3.75 0a.938.938 0 1 0 1.876 0 .938.938 0 0 0-1.875 0z" fill-rule="evenodd"/></symbol><symbol viewBox="0 0 226.777 226.777" id="xrp" xmlns="http://www.w3.org/2000/svg"><path d="M113.48.183C50.908.183.183 50.908.183 113.48c0 62.572 50.725 113.297 113.297 113.297 62.572 0 113.297-50.726 113.297-113.297C226.777 50.908 176.052.183 113.48.183zm47.419 163.777c-7.365 12.656-23.905 17.119-36.941 9.97-13.037-7.149-17.635-23.205-10.268-35.862 3.068-5.272 1.153-11.96-4.28-14.941-5.356-2.937-12.132-1.166-15.261 3.941h-.002v-.021c-.044.078-.083.155-.128.232-7.365 12.656-23.904 17.12-36.94 9.97-13.038-7.149-17.636-23.207-10.271-35.86 7.367-12.657 23.905-17.12 36.944-9.969 4.357 2.39 7.765 5.779 10.107 9.7v-.014l.002-.002c3.248 5.032 10.055 6.654 15.341 3.603 5.362-3.095 7.125-9.824 3.936-15.03-7.651-12.494-3.42-28.645 9.451-36.072 12.869-7.428 29.506-3.321 37.159 9.172 7.651 12.495 3.422 28.645-9.451 36.073a27.612 27.612 0 0 1-13.697 3.694l.012.005v.002c-6.175.207-11.081 5.161-11.007 11.191.073 6.11 5.239 11.008 11.533 10.936l-.039.021a27.627 27.627 0 0 1 13.533 3.401c13.034 7.151 17.632 23.206 10.267 35.86z"/></symbol><symbol id="xrp-logo" viewBox="0 0 52.44 56.69" xmlns="http://www.w3.org/2000/svg"><defs><style>.cvcls-1{fill:#363635}</style></defs><title>Artboard 53</title><path class="cvcls-1" d="M34.67 1.53a12 12 0 0 0-5.93 10.3 13.42 13.42 0 0 0 2 6.36C31.59 20 32 23 29 24.56a4.71 4.71 0 0 1-6.4-1.76 19.78 19.78 0 0 0-4.83-4.8 11.49 11.49 0 0 0-11.84 0 11.94 11.94 0 0 0 0 20.63 11.51 11.51 0 0 0 11.85 0 12.06 12.06 0 0 0 4.6-4.82A4.51 4.51 0 0 1 28.73 32a4.91 4.91 0 0 1 1.76 6.36 13.24 13.24 0 0 0-1.76 6.36 11.92 11.92 0 0 0 5.94 10.31 11.49 11.49 0 0 0 11.84 0 11.93 11.93 0 0 0 0-20.62 13.24 13.24 0 0 0-6.58-1.54 4.6 4.6 0 1 1 0-9.2 13.81 13.81 0 0 0 6.58-1.54 11.92 11.92 0 0 0 0-20.61A11.37 11.37 0 0 0 40.59 0a11.31 11.31 0 0 0-5.92 1.53z"/></symbol><symbol viewBox="0 0 20 14.003174" id="yt" xmlns="http://www.w3.org/2000/svg"><path d="M19.588 2.191A2.505 2.505 0 0 0 17.825.428C16.26 0 10 0 10 0S3.74 0 2.175.412c-.84.23-1.533.922-1.763 1.78C0 3.755 0 7.001 0 7.001s0 3.261.412 4.81c.23.857.906 1.532 1.763 1.763 1.581.428 7.825.428 7.825.428s6.26 0 7.825-.412a2.506 2.506 0 0 0 1.763-1.762C20 10.262 20 7.018 20 7.018s.016-3.262-.412-4.827zM8.007 10V4.003l5.205 2.999L8.007 10z"/></symbol></svg>