<svg width="19" height="18" viewBox="0 0 19 18" xmlns="http://www.w3.org/2000/svg">
    <g fill="#282844" fill-rule="nonzero">
        <path d="M12.248 8.448c.005-.112.008-.21.01-.336h-4.07v2.009c.43.013.857.058 1.28.136a5.155 5.155 0 0 1 2.78-1.81zM3.656 3.688C4.246 2.193 5.17.95 6.37.066a7.888 7.888 0 0 0-4.242 2.355c.454.485.968.911 1.53 1.267zM3.452 4.26a8.46 8.46 0 0 1-1.715-1.386A7.802 7.802 0 0 0 0 7.52h2.92c.027-1.184.21-2.262.532-3.26zM11.798 4.567a8.371 8.371 0 0 1-3.61.934v2.02h4.07c-.016-1.002-.171-1.995-.46-2.954zM12.843 8.333a5.126 5.126 0 0 1 2.874.452c.028-.224.046-.461.054-.673h-2.92c-.002.085-.005.147-.008.221zM8.189 0v4.91a7.872 7.872 0 0 0 3.417-.912C10.928 2.218 9.753.818 8.19 0zM2.92 8.112H0a7.896 7.896 0 0 0 1.737 4.643 8.454 8.454 0 0 1 1.715-1.387 11.535 11.535 0 0 1-.532-3.256zM12.85 7.52h2.921a7.806 7.806 0 0 0-1.736-4.646 8.387 8.387 0 0 1-1.713 1.396c.321.995.502 2.066.529 3.25zM12.118 3.696a7.792 7.792 0 0 0 1.527-1.274A7.889 7.889 0 0 0 9.402.066c1.202.885 2.127 2.131 2.716 3.63zM7.597 15.623v-4.908a7.8 7.8 0 0 0-3.415.918c.679 1.775 1.85 3.172 3.415 3.99zM13.514 10.07a3.369 3.369 0 1 0 0 6.739 3.369 3.369 0 0 0 0-6.738zm1.426 3.96h-1.63a.292.292 0 0 1-.302-.285v-2.14a.296.296 0 1 1 .592 0v1.834h1.34a.296.296 0 0 1 0 .592zM9.097 10.796a7.783 7.783 0 0 0-.908-.083v4.91c.169-.096.356-.2.529-.31a5.146 5.146 0 0 1 .379-4.517zM3.656 11.934a7.88 7.88 0 0 0-1.529 1.267 7.886 7.886 0 0 0 4.242 2.355c-1.2-.884-2.124-2.127-2.713-3.622z"/>
        <path d="M13.514 8.879a4.56 4.56 0 1 0 0 9.121 4.56 4.56 0 0 0 0-9.121zm0 8.521a3.96 3.96 0 1 1 0-7.922 3.96 3.96 0 0 1 0 7.922zM3.513 7.52h4.084V5.5a8.484 8.484 0 0 1-3.614-.941c-.293.96-.451 1.957-.47 2.961zM3.983 11.069a8.494 8.494 0 0 1 3.614-.947v-2.01H3.512c.02 1.003.178 1.998.47 2.957zM4.182 3.99a7.793 7.793 0 0 0 3.415.917V0C6.032.817 4.86 2.214 4.182 3.99z"/>
    </g>
</svg>
